<svg width="168" height="168" viewBox="0 0 168 168" fill="none" xmlns="http://www.w3.org/2000/svg">
  <g clip-path="url(#a)">
    <path d="m152.016 44.377-68.508 39.5V163l68.508-39.5V44.377Z" fill="#BDBDBD"/>
    <path fill-rule="evenodd" clip-rule="evenodd" d="M154.517 40.047a5 5 0 0 1 2.499 4.33V123.5a5 5 0 0 1-2.503 4.332l-68.508 39.5A4.998 4.998 0 0 1 78.508 163V83.877a5 5 0 0 1 2.502-4.332l68.508-39.5a5 5 0 0 1 4.999.002Zm-71.01 43.83 68.509-39.5V123.5L83.508 163V83.877Z" fill="#000"/>
    <path d="m15 44.377 68.508 39.5V163L15 123.5V44.377Z" fill="#EFEFEF"/>
    <path d="M46.15 86.203c4.74 2.763 8.715 9.518 8.715 15.045 0 5.527-3.975 7.676-8.715 4.913-4.74-2.764-8.716-9.519-8.716-15.046 0-5.527 3.976-7.676 8.716-4.912Z" fill="#000"/>
    <path d="M52.877 109.845c3.67 4.759 6.27 11.054 6.117 16.427v5.067L33 116.14v-5.067c0-5.373 2.6-8.751 6.269-9.211 1.835 2.763 4.281 5.22 6.728 6.755 2.6 1.535 5.046 1.842 6.88 1.228Zm68.973-24.642c-4.74 2.763-8.715 9.518-8.715 15.045 0 5.527 3.975 7.676 8.715 4.913 4.74-2.764 8.716-9.519 8.716-15.046 0-5.527-3.976-7.676-8.716-4.912Z" fill="#000"/>
    <path d="M115.123 108.845c-3.67 4.759-6.269 11.054-6.117 16.427v5.067L135 115.14v-5.067c0-5.373-2.599-8.751-6.269-9.211-1.835 2.763-4.281 5.22-6.728 6.755-2.599 1.535-5.046 1.842-6.88 1.228Z" fill="#000"/>
    <path fill-rule="evenodd" clip-rule="evenodd" d="M12.499 40.047a5 5 0 0 1 4.998-.002l68.508 39.5a5 5 0 0 1 2.503 4.332V163a4.999 4.999 0 0 1-7.498 4.332l-68.508-39.5A5.001 5.001 0 0 1 10 123.5V44.377a5 5 0 0 1 2.499-4.33ZM15 44.377V123.5L83.508 163V83.877L15 44.377Z" fill="#000"/>
    <path d="m15 44.5 70.508 39.623L152.016 44.5 83.508 5 15 44.5Z" fill="#EFEFEF"/>
    <path fill-rule="evenodd" clip-rule="evenodd" d="M10 44.528a5 5 0 0 1 2.502-4.36L81.01.668a5 5 0 0 1 4.995 0l68.508 39.5a4.999 4.999 0 0 1 .062 8.627L88.067 88.42a5 5 0 0 1-5.009.063L12.55 48.86A5 5 0 0 1 10 44.528Zm75.508 39.595L15 44.5 83.508 5l68.508 39.5-66.508 39.623Z" fill="#000"/>
    <g clip-path="url(#b)" fill="#000">
      <path d="M91.938 48.774c1.406 3.71-.157 7.742-4.844 10.484L82.563 62 56 46.032l4.375-2.58c4.688-2.904 11.406-3.871 17.656-2.904.313 2.097 1.875 4.033 4.531 5.645 2.657 1.452 5.938 2.259 9.376 2.581Z"/>
      <path d="M102.406 34.258c4.844 2.903 5 7.58 0 10.645-4.844 2.903-12.812 2.903-17.656 0-4.844-2.903-5-7.58 0-10.645 4.844-3.065 12.656-3.065 17.656 0Z"/>
    </g>
  </g>
  <defs>
    <clipPath id="a">
      <path fill="#fff" d="M0 0h168v168H0z"/>
    </clipPath>
    <clipPath id="b">
      <path fill="#fff" transform="translate(56 32)" d="M0 0h50v30H0z"/>
    </clipPath>
  </defs>
</svg>
