<svg width="146" height="24" viewBox="0 0 146 24" fill="none" xmlns="http://www.w3.org/2000/svg">
<path fill-rule="evenodd" clip-rule="evenodd" d="M7.21378 0.9772C5.37768 1.56548 2.34647 4.30626 1.23871 6.38007C-0.0795686 8.84771 -0.0795686 15.1408 1.23871 17.6085C2.40414 19.7902 5.56965 22.5775 7.4865 23.1102C9.44455 23.654 14.1788 23.6445 15.6466 23.0941C18.9015 21.8731 21.9558 18.427 21.9558 15.9746C21.9558 14.899 21.9043 14.878 19.2645 14.878C16.7602 14.878 16.4767 14.974 15.1918 16.2589C12.9619 18.4888 10.3344 18.5387 7.99898 16.3952C6.87927 15.3678 5.88933 13.273 5.88933 11.9316C5.88933 11.4295 6.2877 10.1961 6.77422 9.19046C7.45725 7.77991 8.07355 7.17927 9.47215 6.5605C11.7775 5.54049 13.3116 5.84946 15.1692 7.70658C16.4796 9.01744 16.7515 9.11054 19.2645 9.11054C21.9509 9.11054 21.9558 9.10848 21.9558 7.93233C21.9558 5.77984 19.3938 2.71032 16.3943 1.26928C14.5409 0.378621 9.57432 0.22084 7.21378 0.9772ZM29.5355 1.24456C27.4501 2.19166 25.2515 4.34416 24.1956 6.47276C23.0586 8.76449 23.0586 15.224 24.1956 17.5158C25.2515 19.6444 27.4501 21.7969 29.5355 22.744C31.4358 23.607 36.0206 23.7945 38.4849 23.1102C40.6077 22.5203 43.7345 19.6085 44.8748 17.1594C46.2306 14.2481 46.2306 9.74043 44.8748 6.8291C43.7242 4.35775 40.7622 1.61739 38.5137 0.943832C36.0238 0.197771 31.5075 0.34896 29.5355 1.24456ZM54.1917 1.0736C53.6817 1.44107 53.2648 1.54612 53.2648 1.30677C53.2648 1.04229 52.1319 0.871326 50.3811 0.871326H47.4974V23.1172H53.1849L53.3278 15.7316C53.458 9.00014 53.5474 8.24295 54.3355 7.18339C55.5743 5.51783 57.4977 5.38848 58.4918 6.90408C59.1291 7.87507 59.258 9.14515 59.3738 15.5796L59.5097 23.1172H65.2117V16.5773C65.2117 12.9805 65.325 9.47101 65.4634 8.7785C66.0442 5.87459 69.0363 4.766 70.4547 6.9288C71.0714 7.8693 71.2074 9.21724 71.3272 15.58L71.4698 23.1172H77.1585L77.1561 15.187C77.1536 6.59429 76.8821 4.88053 75.205 2.88787C73.7566 1.16629 71.9485 0.459366 68.9943 0.459366C66.9728 0.459366 66.2972 0.657931 64.9171 1.65735L63.2635 2.85533L62.1764 1.76816C61.2379 0.829718 60.6813 0.662463 58.1041 0.543406C55.8392 0.438768 54.8949 0.566887 54.1917 1.0736ZM83.5892 1.43365C81.5756 2.65223 80.0472 5.11905 80.0443 7.15373L80.0423 8.69858H82.926C85.5238 8.69858 85.8097 8.61784 85.8097 7.88413C85.8097 7.43633 86.2806 6.76113 86.8565 6.38377C88.3 5.43791 89.9293 6.14772 89.9293 7.72265C89.9293 8.85389 89.4197 9.41993 82.6162 15.8436L79.6303 18.6631V23.1172H95.6968V17.7617H88.92L91.8746 14.775C95.1822 11.4311 95.6968 10.4239 95.6968 7.29091C95.6968 4.77383 94.6562 2.89405 92.4332 1.39616C90.4212 0.0399896 85.8592 0.0593516 83.5892 1.43365ZM105.829 1.35332C105.427 1.92595 105.172 3.1437 105.172 4.4834C105.172 6.26224 105.363 6.867 106.183 7.68722C106.739 8.24336 107.574 8.69858 108.037 8.69858C110.186 8.69858 111.503 5.2756 110.486 2.33255C109.949 0.781107 109.791 0.656695 108.197 0.540522C106.801 0.438768 106.364 0.588721 105.829 1.35332ZM113.965 1.99186C112.162 6.30632 115.298 10.5565 118.167 7.68722C118.988 6.867 119.179 6.26224 119.179 4.4834C119.179 1.52511 118.403 0.459366 116.25 0.459366C114.741 0.459366 114.552 0.585837 113.965 1.99186ZM132.774 0.901811C128.423 2.72227 127.014 8.89756 130.219 12.1022C131.121 13.0036 132.461 13.598 135.472 14.4314C139.857 15.6455 140.956 16.4776 139.562 17.5314C137.874 18.8069 134.476 18.0839 133.652 16.2745C133.245 15.3831 132.949 15.29 130.516 15.29H127.83V16.5926C127.83 18.7797 129.595 21.249 132.024 22.4593C136.316 24.5982 142.584 23.642 144.82 20.507C145.582 19.4388 145.75 18.6586 145.75 16.1851C145.75 13.2334 145.717 13.1362 144.232 11.7759C142.813 10.4754 141.644 10.0066 136.563 8.6994C135.588 8.44852 134.687 7.97271 134.56 7.6419C134.193 6.68615 135.225 5.81486 136.725 5.81486C137.78 5.81486 138.319 6.1057 139.018 7.05074C139.865 8.19681 140.12 8.28662 142.532 8.28662H145.132V7.00995C145.132 5.06385 144.016 3.1264 142.151 1.83325C140.684 0.816535 140.034 0.652575 137.135 0.568123C135.302 0.51498 133.34 0.664934 132.774 0.901811ZM32.4258 6.40025C28.7115 8.01761 27.83 13.1852 30.7421 16.2729C33.4314 19.1245 37.2952 18.4748 39.1815 14.8541C40.8491 11.654 39.6021 7.66868 36.5322 6.38625C34.8543 5.68509 34.0625 5.68797 32.4258 6.40025ZM97.5205 11.6853C98.1278 16.3458 100.951 20.243 105.172 22.2455C107.045 23.1341 108.152 23.3446 111.557 23.4587C115.036 23.5753 116.06 23.453 118.138 22.6748C122.815 20.9231 126.162 16.684 126.827 11.6684L127.112 9.5225H123.969C120.914 9.5225 120.826 9.55052 120.826 10.5256C120.826 14.4067 116.827 17.7436 112.175 17.7436C107.523 17.7436 103.524 14.4067 103.524 10.5256C103.524 9.55052 103.437 9.5225 100.381 9.5225H97.2383L97.5205 11.6853Z" fill="white"/>
</svg>
