<svg width="183" height="38" viewBox="0 0 183 38" fill="none" xmlns="http://www.w3.org/2000/svg">
<path fill-rule="evenodd" clip-rule="evenodd" d="M0.640974 17H3.97813L4.08418 8.4412L9.7393 17H11.8798C13.0572 17 14.0203 16.9558 14.0203 16.9018C14.0203 16.8477 12.5981 14.7674 10.8602 12.2787C8.84839 9.39841 7.75503 7.66441 7.85144 7.5074C7.93467 7.37164 9.1935 5.7555 10.6487 3.91584C12.1041 2.07619 13.3802 0.460441 13.4849 0.325074C13.6343 0.131861 13.2352 0.0791308 11.6256 0.0791308H9.57599L4.08418 7.45743L3.97714 0.0791308H0.640974V17ZM64.5862 17H68.1319L68.0294 0.177508L64.5862 0.0637841V17ZM122.53 2.41166L121.153 2.9486L121.036 5.3915H118.694V7.5558H121.026L121.089 11.5401C121.146 15.0846 121.196 15.595 121.54 16.1638C122.115 17.1143 123.246 17.4823 125.11 17.3247C125.928 17.2556 126.679 17.149 126.778 17.0878C126.877 17.0268 126.957 16.5394 126.957 16.0046V15.0325H125.985C124.477 15.0325 124.4 14.8277 124.4 10.8568V7.5558H126.957V5.3915H124.4V3.62071C124.4 2.32863 124.333 1.85327 124.154 1.86232C124.018 1.86901 123.288 2.11633 122.53 2.41166ZM177.622 2.41166L176.244 2.9486L176.127 5.3915H173.785V7.5558H176.117L176.181 11.5755C176.239 15.2749 176.277 15.6393 176.652 16.15C177.389 17.1543 178.201 17.4345 180.036 17.3184C180.931 17.2617 181.749 17.1618 181.856 17.096C181.962 17.0305 182.049 16.5439 182.049 16.0149V15.0531L181.02 14.9935C179.574 14.9099 179.497 14.6986 179.494 10.7531L179.491 7.5558H182.049V5.3915H179.491V3.62071C179.491 2.32863 179.424 1.85327 179.245 1.86232C179.11 1.86901 178.379 2.11633 177.622 2.41166ZM17.2827 5.39426C16.0907 5.85978 15.1331 6.75521 14.4455 8.04769C13.9742 8.93309 13.9219 9.23806 13.9219 11.0974C13.9219 12.8383 13.9933 13.3182 14.3752 14.1471C15.2653 16.079 16.8488 17.1435 19.1162 17.3335C21.7643 17.5555 23.7876 16.515 24.8318 14.3938C26.6082 10.7855 25.143 6.27729 21.8789 5.30788C20.463 4.88742 18.4856 4.92461 17.2827 5.39426ZM39.2743 5.3067C38.1784 5.71084 37.0962 6.80223 36.4721 8.13289C36.0131 9.11154 35.9594 9.45901 35.9679 11.3925C35.9789 13.8966 36.4084 15.1997 37.5545 16.2059C39.4418 17.863 43.662 17.7609 45.3237 16.0178C45.9724 15.3374 46.5922 13.8281 46.3303 13.5663C46.2709 13.507 45.5791 13.4584 44.7929 13.4584C43.5423 13.4584 43.3477 13.507 43.2399 13.8468C42.8763 14.9923 41.0487 15.415 40.0759 14.5782C39.6661 14.2256 39.5258 13.8952 39.4496 13.1025L39.3516 12.0812H43.115C46.5702 12.0812 46.8777 12.053 46.8722 11.7368C46.8509 10.5335 46.4328 8.42015 46.0749 7.70691C45.1398 5.84404 43.9901 5.1556 41.6643 5.06627C40.6042 5.02554 39.8239 5.10405 39.2743 5.3067ZM50.9627 5.27798C49.7838 5.69864 49.2319 6.15294 48.8336 7.03008C48.1739 8.48311 48.2223 8.53958 50.1248 8.53958C51.6128 8.53958 51.7972 8.50003 51.7972 8.1803C51.7972 7.63628 52.6271 6.96554 53.3004 6.96554C54.1486 6.96554 54.7485 7.67248 54.7485 8.67199V9.46787L53.1091 9.57018C51.4456 9.67387 49.942 10.1667 49.1764 10.8589C47.698 12.1959 47.5929 15.1962 48.9804 16.4519C50.4051 17.7412 53.1327 17.6714 54.4933 16.3108C55.0137 15.7904 55.142 15.7329 55.142 16.0198C55.142 16.8916 55.3238 17 56.7863 17L58.1917 17.0002L58.1356 12.6222C58.0742 7.8413 57.9318 7.05644 56.9557 6.12127C56.6586 5.83656 56.0292 5.46726 55.5571 5.3008C54.5039 4.92913 51.9752 4.91654 50.9627 5.27798ZM75.998 5.31162C75.6192 5.47572 75.0658 5.84306 74.7683 6.12776L74.2272 6.64562V5.3915H70.8824V17H74.2272L74.2284 13.4093C74.229 11.4344 74.3248 9.47515 74.4413 9.05547C74.7395 7.98099 75.4201 7.35905 76.297 7.35905C78.1298 7.35905 78.359 7.9928 78.359 13.0586V17H81.7292L81.6673 12.2287C81.608 7.65458 81.5868 7.42752 81.1553 6.73357C80.2449 5.26952 77.7093 4.57045 75.998 5.31162ZM99.3384 5.27522C98.148 5.71772 97.2006 6.60528 96.5689 7.87002C95.8062 9.39644 95.6414 11.8451 96.1696 13.7967C96.9423 16.651 99.6711 17.9745 103.15 17.1822C104.901 16.7836 106.28 15.3449 106.294 13.9011C106.298 13.4815 106.222 13.4584 104.836 13.4584C103.553 13.4584 103.358 13.5061 103.25 13.8468C103.043 14.4989 102.182 15.0325 101.338 15.0325C100.194 15.0325 99.4118 14.1998 99.4118 12.9817V12.0812H106.692V10.8381C106.692 8.42723 105.683 6.38295 104.087 5.55973C103.016 5.00685 100.471 4.85436 99.3384 5.27522ZM110.866 5.35845C108.591 6.16967 107.638 8.17539 108.61 10.1097C109.087 11.058 109.954 11.5769 111.938 12.101C113.633 12.5486 114.759 13.219 114.759 13.7799C114.759 14.295 113.832 15.0325 113.184 15.0325C112.391 15.0325 111.475 14.551 111.316 14.0509C111.204 13.6983 111.02 13.6552 109.63 13.6552C107.851 13.6552 107.797 13.725 108.451 15.1671C109.829 18.2014 116.236 18.0529 117.85 14.9493C118.243 14.1935 118.231 12.7013 117.825 11.9177C117.398 11.0921 116.347 10.4298 114.66 9.92355C112.67 9.32659 111.917 8.91439 111.841 8.38119C111.743 7.68822 112.147 7.35905 113.096 7.35905C113.765 7.35905 114.024 7.46235 114.33 7.85094C114.682 8.29875 114.851 8.34282 116.217 8.34282H117.717L117.592 7.80175C117.178 6.01994 115.885 5.15402 113.488 5.05368C112.305 5.00429 111.643 5.08122 110.866 5.35845ZM134.091 5.29096C133.74 5.44364 133.231 5.79033 132.959 6.06126L132.467 6.55413V5.3915H129.122V17H132.467V13.0519C132.467 8.99841 132.519 8.67298 133.312 7.80175C133.903 7.15305 135.186 7.18591 135.826 7.86628C136.297 8.36683 136.304 8.43117 136.363 12.6868L136.423 17H139.943V13.0777C139.943 10.9205 140.026 8.93683 140.128 8.66963C140.558 7.53849 141.878 7.01178 142.905 7.56171C143.759 8.01857 143.878 8.67829 143.878 12.9567V17H147.242L147.184 12.1303C147.126 7.3502 147.116 7.24847 146.652 6.5984C145.748 5.33051 143.303 4.63223 141.776 5.20616C141.471 5.32067 140.849 5.77891 140.392 6.22456L139.562 7.035L139.129 6.48369C138.149 5.23804 135.601 4.63459 134.091 5.29096ZM152.142 5.40744C150.396 6.198 149.364 7.69904 149 9.98002C148.753 11.5259 149.01 13.7111 149.569 14.8058C150.43 16.4942 152.072 17.3935 154.293 17.3935C156.6 17.3935 158.348 16.4932 159.052 14.9422C159.688 13.5432 159.625 13.4584 157.951 13.4584C156.52 13.4584 156.473 13.4738 156.178 14.0428C156.012 14.3643 155.706 14.7185 155.498 14.8298C154.938 15.1295 153.669 15.0758 153.177 14.7316C152.748 14.431 152.342 13.3603 152.34 12.5239L152.339 12.0812H159.874L159.752 10.5091C159.471 6.86559 157.626 4.99131 154.331 5.00232C153.448 5.00527 152.742 5.13592 152.142 5.40744ZM166.702 5.21797C166.431 5.3254 165.922 5.69136 165.57 6.03115L164.931 6.64916V5.3915H161.586V17H164.931V13.157C164.931 9.02537 165.066 8.29049 165.938 7.67996C166.636 7.19102 167.727 7.26638 168.266 7.84051C168.905 8.5201 169.045 9.52689 169.054 13.5076L169.063 17H172.444L172.373 12.3271C172.297 7.23037 172.225 6.87936 171.084 5.98118C169.906 5.05486 167.965 4.71683 166.702 5.21797ZM32.8103 5.47257C32.2026 5.74271 31.5527 6.37331 31.1708 7.06392C30.989 7.3925 30.9522 7.28704 30.9471 6.42447L30.9412 5.3915H27.7327L27.8612 7.78345C27.932 9.09895 27.9899 11.7109 27.9899 13.5877V17H31.3347V13.5861C31.3347 11.5952 31.4256 9.91155 31.5527 9.54676C31.8307 8.74971 32.6179 8.34282 33.8827 8.34282H34.8763V5.19475L34.1384 5.20242C33.7327 5.20675 33.135 5.32815 32.8103 5.47257ZM83.9915 7.89284C84.486 9.27662 85.3607 11.7368 85.9357 13.3601C86.5106 14.9833 87.0438 16.4694 87.1207 16.6626C87.2433 16.9709 87.4877 17.0069 89.1292 16.9577L90.998 16.9016L95.0228 5.3915H91.8072L90.5545 9.2231C89.8654 11.3305 89.2522 13.0079 89.1919 12.9506C89.1315 12.8932 88.5478 11.191 87.8947 9.16801L86.7073 5.48988L83.0927 5.37694L83.9915 7.89284ZM18.1586 7.94223C17.5105 8.63599 17.3651 9.25439 17.3651 11.3148C17.3651 13.9076 18.1018 15.0325 19.7998 15.0325C21.2768 15.0325 22.0882 13.6629 22.086 11.1729C22.0839 8.48941 21.3708 7.35905 19.6799 7.35905C18.8514 7.35905 18.621 7.44739 18.1586 7.94223ZM40.0184 7.8228C39.7788 8.0778 39.5305 8.60903 39.4666 9.00333L39.3501 9.7201H41.3434C43.5514 9.7201 43.5799 9.69905 43.0583 8.45064C42.7222 7.6467 42.2378 7.35905 41.2196 7.35905C40.6697 7.35905 40.3313 7.4897 40.0184 7.8228ZM100.244 7.49068C99.8893 7.63333 99.4118 8.62497 99.4118 9.21838V9.7201H103.294L103.142 8.89098C102.948 7.82831 102.375 7.35433 101.308 7.37459C100.86 7.38305 100.381 7.43539 100.244 7.49068ZM153.177 7.65989C152.82 7.90977 152.344 8.99782 152.34 9.57254C152.339 9.6536 153.224 9.7201 154.306 9.7201H156.274V9.14499C156.274 8.81326 156.058 8.31351 155.764 7.96446C155.345 7.46589 155.11 7.35905 154.431 7.35905C153.978 7.35905 153.413 7.49442 153.177 7.65989ZM52.5208 11.7764C51.5935 12.1071 51.2213 12.5744 51.2132 13.4181C51.1992 14.8646 53.0603 15.6005 54.0453 14.5378C54.5263 14.0186 54.7485 13.266 54.7485 12.1549C54.7485 11.5173 54.7192 11.4913 54.0107 11.4996C53.6049 11.5043 52.9344 11.6288 52.5208 11.7764ZM73.1488 22.4301C70.7608 23.3042 69.3274 26.654 69.8642 30.1062C70.3812 33.4324 72.0511 35.1014 74.8615 35.1014C76.3769 35.1014 77.2116 34.8748 78.1875 34.1985C78.8112 33.7665 79.7363 32.3882 79.7363 31.8912C79.7363 31.8172 79.3131 31.7566 78.7956 31.7566C77.9297 31.7566 77.8372 31.8038 77.6306 32.351C77.3168 33.1823 75.876 33.8149 74.672 33.6498C72.6868 33.3777 71.8295 32.0616 71.7087 29.0993C71.6113 26.7136 71.8559 25.6907 72.7645 24.6851C74.1961 23.1004 76.8952 23.26 77.7143 24.9774C78.01 25.5976 78.1129 25.6572 78.8873 25.6572C79.8382 25.6572 79.9197 25.4829 79.4654 24.4212C79.0921 23.5488 78.2209 22.7785 77.2001 22.4184C76.1373 22.0434 74.1898 22.0489 73.1488 22.4301ZM0.640974 34.9047H2.21501V29.4402L4.23175 29.3649C7.52384 29.2419 8.90703 28.3059 9.05223 26.1025C9.1512 24.5999 8.55661 23.3959 7.42901 22.8157C6.75788 22.4704 6.19988 22.4009 3.64148 22.3439L0.640974 22.2772V34.9047ZM102.757 34.9047H110.233V33.3307H104.331V22.3124H102.757V34.9047ZM123.416 27.2134L122.947 26.7441C121.964 25.7611 119.933 25.6527 118.654 26.5147C116.041 28.2756 116.211 33.4105 118.93 34.825C120.109 35.4387 122.44 35.03 123.095 34.0947L123.416 33.6366V34.2705C123.416 34.8909 123.435 34.9047 124.301 34.9047H125.187V22.3124H123.416V27.2134ZM2.21501 27.8215H4.15599C5.81286 27.8215 6.17194 27.7627 6.60815 27.4196C7.23579 26.9257 7.46796 25.8733 7.12935 25.0559C6.71695 24.0604 6.27209 23.8864 4.13868 23.8864H2.21501V27.8215ZM27.3606 24.1117C26.9016 24.2797 26.8217 24.4305 26.7704 25.2275L26.711 26.1491L25.9731 26.0915C25.2485 26.0348 25.2353 26.0462 25.2353 26.7309C25.2353 27.4131 25.2522 27.428 26.0223 27.428H26.8093V30.7817C26.8093 34.0803 26.8172 34.1434 27.2924 34.6184C27.7067 35.033 27.958 35.1014 29.0632 35.1014H30.3509V34.5112C30.3509 33.9701 30.2946 33.9209 29.6762 33.9209C28.4784 33.9209 28.3834 33.6594 28.3834 30.3654V27.428H30.3509V26.0137L28.3834 26.2845V25.0855C28.3834 23.8067 28.3308 23.7568 27.3606 24.1117ZM112.644 24.1066C112.03 24.2837 112.004 24.3321 112.004 25.2913V26.2914L111.315 26.1621C110.634 26.0342 110.627 26.0397 110.627 26.7305C110.627 27.3965 110.658 27.428 111.315 27.428H112.004V30.6593C112.004 33.8487 112.011 33.8987 112.513 34.496C112.992 35.0645 113.106 35.1014 114.383 35.1014H115.742V34.5112C115.742 33.9837 115.678 33.9209 115.139 33.9209C113.805 33.9209 113.775 33.8436 113.775 30.4708V27.428H115.742V26.0137L113.775 26.2845V25.0855C113.775 23.7949 113.762 23.7837 112.644 24.1066ZM12.9381 26.0368C11.6763 26.3411 10.8722 27.0914 10.8722 27.9638C10.8722 28.3532 10.9724 28.4118 11.6366 28.4118C12.2385 28.4118 12.4708 28.3053 12.729 27.911C13.1908 27.2065 13.9498 26.954 14.824 27.2143C15.5957 27.4442 15.9878 28.0496 15.9878 29.0113V29.5923L14.463 29.5966C11.8603 29.6039 10.4809 30.5401 10.3264 32.4037C10.2513 33.3092 10.3071 33.5272 10.7488 34.052C11.457 34.8937 12.2279 35.1646 13.6266 35.0633C14.5877 34.9938 14.9155 34.8746 15.3873 34.4226L15.967 33.8674L16.097 34.386C16.2108 34.8388 16.3276 34.9047 17.0186 34.9047H17.8102L17.6882 34.1669C17.6211 33.7612 17.5652 32.1261 17.564 30.5338L17.5619 27.6385L16.9641 26.9578C16.1511 26.0316 14.5122 25.6568 12.9381 26.0368ZM35.2712 26.1568C34.8932 26.3266 34.3842 26.6532 34.1398 26.8826L33.6957 27.2999V26.7736C33.6957 26.291 33.6308 26.2475 32.9087 26.2475H32.1217V34.9047H33.6605L33.7359 31.9042C33.8175 28.6501 33.9623 28.0976 34.8743 27.5589C35.5193 27.1779 36.8035 27.1372 37.2544 27.4835C37.9218 27.996 38.0243 28.5627 38.0243 31.7436V34.9047H39.827L39.7619 31.3769C39.7025 28.155 39.6609 27.8011 39.2826 27.2942C38.3907 26.0987 36.5575 25.5789 35.2712 26.1568ZM44.4435 26.1332C42.7624 26.7539 41.7617 28.4081 41.7639 30.5619C41.7658 32.6749 42.5532 34.2861 43.8483 34.8272C44.8409 35.2419 46.7925 35.178 47.7836 34.6983C48.6942 34.2576 49.1852 33.6502 49.3674 32.7396C49.4831 32.1613 49.4699 32.1501 48.6762 32.1501C47.9414 32.1501 47.8416 32.2117 47.5862 32.823C47.245 33.6394 46.765 33.9209 45.7139 33.9209C44.5047 33.9209 43.7098 33.128 43.5815 31.7942L43.4835 30.7728H49.6329V29.8276C49.6329 28.5072 48.871 27.0349 47.9077 26.4936C46.9086 25.9321 45.4103 25.7763 44.4435 26.1332ZM59.9489 26.0295C58.3145 26.4458 57.359 27.6317 57.5731 28.9788C57.7393 30.0254 58.549 30.6503 60.2785 31.0672C62.3442 31.5652 62.8154 31.8377 62.8154 32.5344C62.8154 33.3259 62.0207 33.9209 60.9636 33.9209C60.0034 33.9209 59.3675 33.5335 59.1942 32.8433C59.0836 32.4028 58.9679 32.3469 58.1667 32.3469C57.2805 32.3469 57.2662 32.3569 57.3966 32.888C57.7714 34.412 58.818 35.1014 60.7495 35.0963C63.1056 35.0902 64.378 34.2469 64.5376 32.5859C64.6708 31.2002 64.1004 30.5969 62.0933 30.0014C59.6845 29.2864 59.4747 29.1854 59.348 28.6806C59.1005 27.6944 60.2458 26.8751 61.458 27.1715C62.1016 27.3287 62.6187 27.8074 62.6187 28.2455C62.6187 28.546 62.7753 28.6085 63.5287 28.6085H64.4386L64.3133 27.9821C64.0819 26.8252 63.1253 26.1379 61.518 25.974C60.9872 25.9199 60.281 25.9449 59.9489 26.0295ZM83.8931 26.1377C82.0759 26.7276 81.1248 28.2339 81.1179 30.5332C81.1112 32.7176 81.7525 33.9237 83.3574 34.7465C84.5129 35.3389 86.8445 35.2008 87.9414 34.475C89.1449 33.6785 89.6748 32.448 89.6628 30.4777C89.6531 28.8911 89.3828 28.035 88.6157 27.1612C87.7131 26.133 85.4314 25.6383 83.8931 26.1377ZM23.1432 26.4281C22.804 26.6349 22.3835 27.0083 22.2086 27.2582C21.8913 27.7111 21.8905 27.7106 21.8905 26.98C21.8905 26.2565 21.8806 26.2475 21.1034 26.2475H20.3164V34.9047H21.8905L21.8916 32.3961C21.8922 31.0164 21.9837 29.5595 22.0951 29.1585C22.3711 28.1647 23.1048 27.6248 24.1797 27.6248H25.0385V26.8378C25.0385 26.0808 25.0141 26.0507 24.3991 26.0515C24.0475 26.0519 23.4822 26.2213 23.1432 26.4281ZM54.8313 26.3299C54.498 26.4749 54.036 26.8478 53.8047 27.1585L53.3836 27.7231L53.3775 26.9853C53.3712 26.2567 53.3614 26.2475 52.5842 26.2475H51.7972V34.9047H53.3712L53.3799 32.5928C53.3948 28.5173 53.8194 27.6248 55.7433 27.6248H56.716V26.8378C56.716 26.0795 56.6928 26.0509 56.0766 26.0584C55.7248 26.0627 55.1644 26.1849 54.8313 26.3299ZM44.8023 27.3397C44.1007 27.686 43.5335 28.5527 43.5335 29.2783V29.7891H47.8621L47.8613 29.248C47.8601 28.3634 47.1917 27.479 46.3475 27.2444C45.4278 26.9891 45.525 26.983 44.8023 27.3397ZM84.4769 27.2893C83.6021 27.5988 83.1299 28.2701 82.8913 29.5431C82.5483 31.3737 83.1169 33.2116 84.1753 33.6939C84.9735 34.0575 86.305 33.9744 86.8759 33.5252C87.9908 32.6483 88.3719 29.6041 87.528 28.3162C86.8714 27.3139 85.6087 26.8891 84.4769 27.2893ZM119.937 27.3519C119.013 27.808 118.599 28.8088 118.602 30.5806C118.606 32.3557 119.027 33.2488 120.114 33.784C120.715 34.0797 120.967 34.1035 121.624 33.9266C122.806 33.6083 123.297 32.7957 123.387 31.0076C123.541 27.9634 122.003 26.3333 119.937 27.3519ZM14.1187 30.6727C14.0104 30.7089 13.6762 30.7927 13.3759 30.859C12.1043 31.1398 11.5864 32.6841 12.4834 33.5197C13.0159 34.016 14.3272 34.0581 14.981 33.6C15.5495 33.202 15.9878 32.1879 15.9878 31.271C15.9878 30.5822 15.9806 30.5763 15.1516 30.5916C14.6916 30.6001 14.2269 30.6367 14.1187 30.6727ZM91.7383 34.9047H93.7059V32.7404H91.7383V34.9047ZM95.5993 34.8004C95.3155 35.9333 95.0832 36.9073 95.0832 36.9647C95.0832 37.022 95.3354 37.069 95.6437 37.069C96.1624 37.069 96.2724 36.9208 97.1194 35.083C97.6227 33.9906 98.0345 33.0166 98.0345 32.9187C98.0345 32.8207 97.6028 32.7404 97.0749 32.7404H96.1155L95.5993 34.8004ZM127.548 34.9047H129.515V32.7404H127.548V34.9047Z" fill="white"/>
</svg>
