<svg width="140" height="78" viewBox="0 0 140 78" fill="none" xmlns="http://www.w3.org/2000/svg">
<path fill-rule="evenodd" clip-rule="evenodd" d="M55.6631 41.1512L61.7681 40.6465L58.6868 32.483L55.6631 41.1512ZM75.4433 27.4184C75.6425 27.6043 75.8462 27.8522 76.0543 28.1577C76.2668 28.4676 76.4793 28.7864 76.705 29.1228L84.6605 40.4871V28.3525C84.6605 27.5645 84.8287 26.9624 85.1696 26.5374C85.1785 26.5285 85.1873 26.5197 85.1962 26.5064L75.3902 27.3741C75.4079 27.3874 75.4256 27.4007 75.4433 27.4184ZM75.3902 27.3741C75.3813 27.3653 75.3725 27.3564 75.3681 27.352C75.3769 27.3608 75.3902 27.3741 75.3902 27.3741ZM51.0058 26.2364L53.1662 26.0416C53.8524 25.9796 54.3129 25.4926 54.3129 24.833V13.0481C54.3129 12.4991 54.5298 11.9634 54.9459 11.4853C55.3621 11.0249 55.88 10.7681 56.4866 10.715L59.3951 10.4494C59.9795 10.3963 60.4798 10.5689 60.8959 10.9762C61.3165 11.3614 61.529 11.8395 61.529 12.3973V24.1822C61.529 24.8418 61.9894 25.2447 62.6756 25.1827L64.8759 24.9835C64.9866 24.9746 65.0884 24.9392 65.1902 24.8861C65.8454 24.5364 65.9827 24.0937 65.9827 23.7793V11.9944C65.9827 11.441 66.1996 10.9054 66.6157 10.4272C67.0363 9.97126 67.5498 9.71448 68.1563 9.65693L71.0649 9.39573C71.6537 9.34261 72.1584 9.51084 72.6056 9.91813C73.0261 10.3033 73.2386 10.7814 73.2386 11.3392V23.1241C73.2386 23.7838 73.6991 24.1866 74.3853 24.1246L76.5457 23.9298C77.2274 23.8679 77.6923 23.3809 77.6923 22.7213V10.9364C77.6923 9.18323 77.0194 7.79756 75.7045 6.8236C74.434 5.84521 72.8712 5.43792 71.0649 5.60172L68.1563 5.86292C66.4431 6.01787 64.9688 6.63323 63.7558 7.69573C62.5517 6.85016 61.0863 6.50042 59.3951 6.65537L56.4866 6.91657C54.6936 7.08037 53.122 7.77099 51.8071 8.98402C50.5366 10.1926 49.8592 11.7377 49.8592 13.4509V25.2358C49.8592 25.8955 50.3196 26.2983 51.0058 26.2364ZM109.337 19.3213C110.603 20.2908 112.166 20.7069 113.977 20.5431C116.482 20.3174 118.386 19.9012 119.794 19.2726C120.285 19.0512 120.564 18.6439 120.564 18.1481V16.727C120.564 15.7929 119.789 15.5759 119.24 15.7619C117.908 16.2046 116.19 16.5145 113.977 16.7137C113.37 16.7713 112.852 16.603 112.436 16.2223C112.015 15.8327 111.803 15.3502 111.803 14.7702V7.88167C111.803 7.30615 112.015 6.7749 112.436 6.31891C112.857 5.85849 113.375 5.60172 113.977 5.54417C116.186 5.34495 117.957 5.34495 119.232 5.54417C119.86 5.64599 120.564 5.26526 120.564 4.34443V2.91891C120.564 2.44964 120.312 2.09547 119.829 1.93167C118.426 1.55979 116.509 1.48896 113.977 1.71917C112.166 1.88297 110.59 2.59131 109.297 3.81761C108.022 5.0262 107.349 6.57126 107.349 8.28454V15.1731C107.349 16.9129 108.018 18.3075 109.337 19.3213ZM137.113 1.27204C135.842 0.29365 134.279 -0.118069 132.469 0.0457331C130.206 0.249378 128.497 0.545994 127.369 0.935577C126.563 1.24547 126.479 1.84313 126.479 2.08662V3.57855C126.479 3.86631 126.554 4.10537 126.705 4.28245C126.895 4.51266 127.178 4.62334 127.51 4.59235C127.563 4.58792 127.696 4.56579 127.749 4.54808C128.621 4.28245 130.211 4.04339 132.469 3.83974C133.053 3.78662 133.553 3.95928 133.974 4.36657C134.394 4.75172 134.607 5.22985 134.607 5.78766V6.77047L129.564 7.22646C127.749 7.39027 126.178 8.0986 124.881 9.32933C123.592 10.5512 122.937 12.0431 122.937 13.7608C122.937 15.5007 123.606 16.8952 124.92 17.909C126.191 18.883 127.754 19.2947 129.564 19.1309L137.949 18.3739C138.605 18.3163 139.061 17.8205 139.061 17.1697V5.3848C139.061 3.67152 138.383 2.24599 137.113 1.27204ZM134.607 14.8499L129.564 15.3059C128.958 15.359 128.44 15.1952 128.024 14.8101C127.603 14.4249 127.391 13.9379 127.391 13.358C127.391 12.8002 127.603 12.2866 128.024 11.8262C128.44 11.3702 128.958 11.109 129.564 11.0559L134.607 10.5999V14.8499ZM99.8897 28.3525L97.1582 28.5739V42.4174L100.293 42.1606C100.979 42.103 101.519 42.041 101.908 41.9702C102.298 41.8994 102.705 41.7754 103.121 41.5939C103.542 41.408 103.901 41.1689 104.211 40.8767C105.592 39.5929 106.287 37.5254 106.287 34.67C106.287 32.6556 105.981 31.1726 105.375 30.2207C104.764 29.2689 104.016 28.6934 103.121 28.4942C102.232 28.295 101.151 28.2463 99.8897 28.3525ZM41.7576 5.15901L45.3746 4.83141C46.0563 4.76943 46.5168 4.28688 46.5168 3.62282V1.96709C46.5168 1.43584 46.1626 0.935577 45.3746 1.00641L41.7576 1.33401C40.9652 1.40485 40.611 1.97151 40.611 2.50276V4.15849C40.611 4.81813 41.0715 5.22099 41.7576 5.15901ZM79.9103 6.21266C80.167 6.07542 80.3795 5.88063 80.5522 5.6637L84.9261 10.166L82.3186 11.047C82.2345 10.7947 82.084 10.5689 81.8626 10.3963C81.2207 9.90042 80.2511 10.0598 79.6933 10.7504C79.1399 11.4455 79.2108 12.4062 79.8527 12.9064C80.4991 13.4022 81.473 13.2384 82.022 12.5478C82.1769 12.3575 82.2787 12.1494 82.3363 11.9325L84.9527 13.1499C84.9527 13.203 84.9438 13.2517 84.9438 13.3048C84.9438 18.9007 89.4905 23.0267 95.0951 22.5176C100.7 22.0129 105.242 17.0634 105.242 11.4676C105.242 5.87178 100.695 1.74573 95.0951 2.25485C92.9923 2.44521 91.0399 3.2598 89.4241 4.49938L87.2105 2.96761C87.3743 2.71084 87.4806 2.41865 87.4939 2.10433C87.5381 1.2012 86.8431 0.497296 85.9355 0.532712C85.0324 0.572557 84.2665 1.33844 84.2222 2.24599C84.178 3.14912 84.8774 3.85745 85.7806 3.81761C86.0285 3.80875 86.2631 3.73792 86.4756 3.63167L86.9582 6.6598L80.9816 4.63662C81.0215 4.30459 80.9772 3.9637 80.8311 3.65381C80.3972 2.75953 79.2905 2.44964 78.3519 2.96318C77.4134 3.47672 77.0017 4.62334 77.4311 5.52204C77.8605 6.42073 78.9761 6.73063 79.9103 6.21266ZM97.3441 15.8416C98.0879 15.7707 98.6899 16.3197 98.6899 17.0634C98.6899 17.8028 98.0879 18.458 97.3441 18.5288C96.6004 18.5952 95.9983 18.0463 95.9983 17.3069C96.0027 16.5632 96.6004 15.908 97.3441 15.8416ZM92.6647 16.2621C93.4084 16.1957 94.0105 16.7447 94.0105 17.484C94.0105 18.2278 93.4084 18.883 92.6647 18.9494C91.9209 19.0202 91.3188 18.4713 91.3188 17.7275C91.3188 16.9882 91.9209 16.3285 92.6647 16.2621ZM102.962 24.9348C102.931 24.9304 102.913 24.9304 102.909 24.9304C102.918 24.9304 102.94 24.9348 102.962 24.9348ZM94.6126 25.6121C94.5285 25.6387 94.4488 25.6653 94.3735 25.6963L94.6126 25.6741V25.6121ZM102.997 24.9348C102.989 24.9348 102.984 24.9348 102.975 24.9348C102.989 24.9348 102.997 24.9348 102.997 24.9348ZM129.179 39.3184C129.17 39.3405 129.162 39.3627 129.148 39.3892C129.157 39.3715 129.166 39.3494 129.179 39.3184ZM125.89 42.8468C124.664 43.502 123.212 43.9004 121.529 44.0377C119.515 44.2059 117.85 43.9624 116.54 43.3116C115.61 42.8379 114.858 42.1694 114.278 41.3062C113.698 40.4384 113.406 39.5752 113.406 38.7119C113.406 38.2116 113.578 37.7689 113.928 37.3838C114.278 36.9986 114.72 36.7817 115.261 36.7374C115.694 36.702 116.066 36.8127 116.367 37.065C116.668 37.3174 116.925 37.7069 117.138 38.2382C117.399 38.8668 117.682 39.3848 117.983 39.7965C118.284 40.2082 118.709 40.5314 119.258 40.7705C119.807 41.0095 120.524 41.0892 121.419 41.014C122.645 40.9166 123.641 40.5491 124.407 39.916C125.173 39.2786 125.553 38.5392 125.553 37.6848C125.553 37.0075 125.35 36.4762 124.934 36.0866C124.522 35.697 123.986 35.4181 123.331 35.2499C122.676 35.0817 121.804 34.9179 120.706 34.7585C119.24 34.5371 118.01 34.2361 117.022 33.8598C116.031 33.4835 115.247 32.9213 114.667 32.1775C114.087 31.4293 113.795 30.4687 113.795 29.291C113.795 28.171 114.101 27.1483 114.716 26.2231C115.327 25.3022 116.217 24.5585 117.377 23.9963C117.7 23.8369 118.045 23.6996 118.404 23.5757L102.997 24.9348C103.56 24.9525 104.082 25.0012 104.556 25.0853C105.561 25.2624 106.473 25.6741 107.287 26.3205C109.417 27.9629 110.479 30.6413 110.479 34.3512C110.479 35.5731 110.373 36.702 110.161 37.7291C109.944 38.7562 109.616 39.6947 109.169 40.5447C108.722 41.3903 108.151 42.165 107.456 42.8645C106.907 43.4002 106.309 43.8429 105.658 44.1926C105.007 44.5424 104.308 44.808 103.56 44.9939C102.812 45.1754 101.97 45.3038 101.032 45.3835L95.6397 45.8262C94.8871 45.8882 94.3204 45.8218 93.9397 45.627C93.559 45.4278 93.311 45.1312 93.1959 44.7283C93.0764 44.3254 93.0188 43.7942 93.0188 43.1345V28.1798C93.0188 27.29 93.2181 26.6304 93.6209 26.1965C93.8113 25.9884 94.0636 25.8202 94.3735 25.6963L87.9056 26.2673C87.9188 26.2806 87.9366 26.2939 87.9498 26.3116C88.2907 26.6746 88.4634 27.2546 88.4634 28.0426V44.0819C88.4634 45.8705 87.7196 46.8267 86.2366 46.9507C85.8647 46.9817 85.5282 46.9551 85.2316 46.871C84.935 46.7913 84.6561 46.6452 84.3949 46.4327C84.1337 46.2246 83.8946 45.9723 83.6688 45.6801C83.4475 45.3879 83.2261 45.0869 83.0004 44.7814L75.2397 33.541V45.4897C75.2397 46.2689 75.0582 46.8754 74.6996 47.3004C74.3366 47.7299 73.8717 47.9689 73.305 48.0132C72.7207 48.0619 72.2514 47.9025 71.8972 47.5262C71.5431 47.1499 71.366 46.5788 71.366 45.8085V30.0746C71.366 29.4106 71.4412 28.8793 71.5918 28.4853C71.7157 28.1754 71.9061 27.9009 72.1496 27.6619L60.6879 28.6713C60.8384 28.7996 60.9756 28.9413 61.0907 29.1007C61.3298 29.4239 61.529 29.778 61.6884 30.1588C61.8522 30.5395 62.0603 31.0486 62.3126 31.6861L67.6472 44.4051C68.0634 45.3746 68.2759 46.083 68.2759 46.539C68.2759 47.0127 68.0767 47.4598 67.6826 47.8892C67.2886 48.3142 66.8105 48.5489 66.2527 48.5976C65.9295 48.6241 65.6506 48.5887 65.416 48.4913C65.1858 48.3939 64.991 48.2523 64.8316 48.0663C64.6767 47.8804 64.504 47.5882 64.3225 47.1898C64.141 46.7913 63.986 46.4416 63.8577 46.1361L62.8837 43.6569L54.5785 44.3431L53.6001 47.0392C53.2194 48.0884 52.8962 48.8056 52.6261 49.1864C52.3561 49.5627 51.9178 49.7796 51.3024 49.8283C50.7845 49.8726 50.3241 49.7176 49.9256 49.3723C49.5228 49.027 49.3235 48.6108 49.3235 48.1283C49.3235 47.8494 49.3722 47.5572 49.4652 47.2517C49.5582 46.9507 49.7087 46.5257 49.9256 45.9767L55.1496 32.3015C55.2957 31.9119 55.4772 31.4382 55.6853 30.8892C55.8933 30.3403 56.1191 29.8754 56.3537 29.5035C56.4644 29.3309 56.5928 29.1671 56.7389 29.021L43.3337 30.2075C43.4488 30.2384 43.5595 30.2739 43.6657 30.3137C44.3077 30.5306 44.8743 30.8671 45.3657 31.3275C45.8616 31.7879 46.2334 32.3413 46.4902 32.9832C46.7425 33.6252 46.8709 34.3158 46.8709 35.0595C46.8709 36.578 46.4415 37.8309 45.5826 38.8093C44.7238 39.7877 43.4222 40.5403 41.6735 41.0671C42.4084 41.3947 43.1123 41.9127 43.7808 42.6166C44.4493 43.3205 45.0425 44.0819 45.5694 44.8965C46.0962 45.7111 46.5035 46.4504 46.7957 47.1189C47.0879 47.7874 47.234 48.2478 47.234 48.509C47.234 48.7791 47.1498 49.0536 46.9772 49.328C46.8045 49.6069 46.5699 49.8371 46.2733 50.0142C45.9767 50.1913 45.6313 50.2976 45.2418 50.3286C44.7769 50.3684 44.3873 50.2887 44.073 50.0983C43.7543 49.908 43.4842 49.6512 43.2584 49.3369C43.0282 49.0226 42.7183 48.5577 42.3287 47.9379L40.673 45.3215C40.0754 44.3608 39.5441 43.6348 39.0748 43.1434C38.6056 42.652 38.1319 42.3332 37.6493 42.1783C37.1668 42.0233 36.5558 41.9746 35.8209 42.0366L34.3733 42.1562V48.7082C34.3733 49.5671 34.1829 50.2223 33.8022 50.6606C33.4215 51.0989 32.9256 51.3424 32.3103 51.3955C31.6506 51.4486 31.1415 51.2759 30.7785 50.8819C30.4155 50.4835 30.234 49.8726 30.234 49.0491V33.3551C30.234 32.4653 30.4332 31.8056 30.836 31.3718C30.8582 31.3496 30.8847 31.3275 30.9069 31.3054L22.73 32.027C22.9248 32.0978 23.1152 32.1775 23.2967 32.2749C23.7793 32.5184 24.2087 32.8504 24.5806 33.2577C24.948 33.6694 25.2313 34.1343 25.4306 34.6478C25.6254 35.1658 25.7228 35.7236 25.7228 36.3168C25.7228 38.3577 24.7001 39.9338 22.6548 41.0494C25.342 41.678 26.6834 43.2275 26.6834 45.6978C26.6834 46.8356 26.3912 47.8892 25.8069 48.8499C25.2181 49.8106 24.43 50.5499 23.4384 51.0679C22.8142 51.3822 22.097 51.6213 21.2912 51.7939C20.4811 51.971 19.5381 52.0994 18.4623 52.1879L12.2201 52.7015C11.317 52.7767 10.6751 52.6306 10.2899 52.2588C10.2545 52.2233 10.2191 52.1835 10.1837 52.1437V52.9494C10.1837 52.9494 10.2634 53.0999 10.4095 53.1398C15.5316 54.4767 105.353 77.989 105.353 77.989L129.144 40.5491V39.3981C129.015 39.708 128.865 40.0134 128.683 40.3056C128.046 41.3416 127.116 42.1871 125.89 42.8468ZM22.73 32.027C22.7212 32.0226 22.7168 32.0226 22.7079 32.0181C22.7212 32.0226 22.73 32.027 22.73 32.027ZM44.6662 7.98792L42.466 8.18714C41.6735 8.25797 41.3194 8.82907 41.3194 9.36032V26.0106C41.3194 26.6702 41.7798 27.0731 42.466 27.0111L44.6662 26.8119C45.348 26.7499 45.8084 26.2629 45.8084 25.6033V8.95303C45.8084 8.42178 45.4543 7.91709 44.6662 7.98792ZM128.949 27.1439C128.75 27.1439 128.745 27.2812 128.745 27.2812C128.745 27.2989 128.745 27.3166 128.745 27.3343C128.745 27.8257 128.573 28.2861 128.223 28.7067C127.873 29.1317 127.439 29.3619 126.921 29.4062C126.448 29.446 126.089 29.3575 125.841 29.1405C125.593 28.9236 125.328 28.5606 125.04 28.0426C124.668 27.3033 124.221 26.741 123.703 26.3515C123.181 25.9663 122.344 25.8158 121.193 25.9132C120.126 26.0017 119.263 26.3072 118.607 26.8296C117.957 27.352 117.629 27.9408 117.629 28.6004C117.629 29.0077 117.74 29.353 117.961 29.6275C118.182 29.9064 118.492 30.1366 118.882 30.3181C119.271 30.4996 119.665 30.6325 120.064 30.721C120.467 30.8095 121.126 30.9335 122.043 31.0884C123.194 31.2611 124.239 31.4736 125.173 31.7215C126.107 31.9694 126.899 32.297 127.555 32.7043C128.21 33.116 128.719 33.6606 129.086 34.3379C129.108 34.3778 129.126 34.4176 129.144 34.4575V27.2856C129.144 27.2812 129.122 27.1439 128.949 27.1439ZM17.0634 28.202V16.4171C17.0634 14.7038 16.3905 13.2827 15.1155 12.3043C13.8449 11.3259 12.2821 10.9142 10.4715 11.078C8.20921 11.2861 6.50036 11.5827 5.37145 11.9723C4.56572 12.2778 4.48161 12.8798 4.48161 13.1233V14.6108C4.48161 14.8986 4.55687 15.1377 4.70739 15.3192C4.89775 15.545 5.18109 15.6556 5.51312 15.6246C5.56624 15.6202 5.69906 15.5981 5.74775 15.5804C6.62432 15.3147 8.21364 15.0801 10.4715 14.8765C11.0558 14.8233 11.5561 14.996 11.9767 15.4033C12.3972 15.7884 12.6097 16.2666 12.6097 16.82V17.8072L7.56729 18.2632C5.75218 18.427 4.18057 19.1309 2.88786 20.3616C1.59515 21.5879 0.939941 23.0798 0.939941 24.7976C0.939941 26.533 1.60843 27.9319 2.92327 28.9457C4.19385 29.9153 5.75661 30.3314 7.56729 30.1676L15.9522 29.4062C16.6074 29.3486 17.0634 28.8528 17.0634 28.202ZM12.6097 25.8822L7.56729 26.3382C6.96077 26.3957 6.44281 26.2275 6.02666 25.8468C5.60609 25.4572 5.39359 24.9702 5.39359 24.3947C5.39359 23.8369 5.60609 23.3189 6.02666 22.8585C6.44281 22.4025 6.96077 22.1457 7.56729 22.0882L12.6097 21.6322V25.8822ZM34.3733 39.19L38.0787 38.8845C39.0748 38.8049 39.9116 38.6499 40.5889 38.4197C41.2662 38.1939 41.7842 37.8619 42.1428 37.4192C42.5014 36.9765 42.6785 36.3921 42.6785 35.6705C42.6785 35.1038 42.5324 34.6168 42.2446 34.2095C41.9569 33.8022 41.5584 33.5145 41.0493 33.3418C40.5668 33.178 39.6149 33.1515 38.1894 33.271L34.3733 33.5853V39.19ZM22.2918 28.8351L24.4566 28.6403C25.1428 28.5783 25.5988 28.0913 25.5988 27.4317V15.6468C25.5988 15.0934 25.8202 14.5621 26.2363 14.0796C26.6524 13.6236 27.1704 13.3668 27.7725 13.3093L30.6811 13.0481C31.2655 12.995 31.7657 13.1676 32.1863 13.5749C32.6069 13.9601 32.8194 14.4382 32.8194 14.996V26.7765C32.8194 27.4361 33.2798 27.839 33.9616 27.777L36.1618 27.5778C36.817 27.5202 37.273 27.0244 37.273 26.3736V14.5931C37.273 12.8356 36.6001 11.4499 35.2853 10.4804C34.0147 9.50198 32.4696 9.09027 30.6811 9.24964L27.7725 9.51527C25.984 9.67907 24.4123 10.3697 23.0931 11.5827C21.8225 12.7869 21.1496 14.3319 21.1496 16.0496V27.8345C21.1496 28.4942 21.61 28.897 22.2918 28.8351ZM21.4019 43.5861C20.6759 43.1832 19.5957 43.0371 18.1569 43.1567L13.8493 43.5108V49.4653L18.2941 49.1022C21.092 48.872 22.4866 47.7476 22.4866 45.7377C22.4866 44.7062 22.128 43.989 21.4019 43.5861ZM13.8493 40.5491L17.6389 40.2392C18.6704 40.1507 19.4673 39.9913 20.0295 39.7478C20.5918 39.5088 21.0212 39.1015 21.3178 38.5304C21.548 38.1187 21.6675 37.6759 21.6675 37.1934C21.6675 36.1619 21.3001 35.5111 20.5652 35.2322C19.8303 34.9533 18.7147 34.878 17.2095 35.002L13.8493 35.2765V40.5491Z" fill="white"/>
</svg>
