<svg width="194" height="122" viewBox="0 0 194 122" fill="none" xmlns="http://www.w3.org/2000/svg">
<g clip-path="url(#clip0_1524_26019)">
<path d="M135.071 27.7017C135.067 34.2856 132.453 40.5992 127.802 45.2577C123.15 49.9161 116.842 52.539 110.259 52.5509H110.229V41.9153C112.094 41.9153 113.941 41.5478 115.664 40.8338C117.387 40.1198 118.953 39.0733 120.272 37.754C121.591 36.4347 122.637 34.8685 123.351 33.1448C124.065 31.4211 124.432 29.5736 124.432 27.7078L135.071 27.7017Z" fill="white"/>
<path d="M77.4883 81.9853C82.7127 82.4177 87.2302 81.0432 90.656 76.9525C92.9008 74.2715 93.9721 71.1475 93.8749 67.6513C93.7576 63.3936 92.0223 59.8913 88.7801 57.1501C85.538 54.409 81.6876 53.6755 77.5099 53.9704V43.3921C85.2849 42.5412 94.4539 45.8274 100.135 53.8747C105.848 61.9498 106.067 73.0084 100.575 81.431C98.1178 85.2286 94.6657 88.2787 90.5947 90.2494C86.5239 92.22 81.9905 93.0354 77.4883 92.6069V81.9853Z" fill="white"/>
<path d="M124.504 61.6094H135.027V92.719H124.504V61.6094Z" fill="white"/>
<path d="M68.5678 58.8221H58V27.7017H68.5678V58.8221Z" fill="white"/>
</g>
<defs>
<clipPath id="clip0_1524_26019">
<rect width="78" height="66.625" fill="white" transform="translate(58 27.6875)"/>
</clipPath>
</defs>
</svg>
