<svg width="165" height="48" viewBox="0 0 165 48" fill="none" xmlns="http://www.w3.org/2000/svg">
<g clip-path="url(#clip0_1785_139978)">
<path fill-rule="evenodd" clip-rule="evenodd" d="M158.887 48H6.11336C2.74403 48 0 45.2948 0 42V6C0 2.69327 2.74403 0 6.11336 0H158.887C162.253 0 165 2.69327 165 6V42C165 45.2948 162.253 48 158.887 48Z" fill="black"/>
<path fill-rule="evenodd" clip-rule="evenodd" d="M158.934 1.2H6.06618C3.38597 1.2 1.21324 3.34903 1.21324 6V42C1.21324 44.651 3.38597 46.8 6.06618 46.8H158.934C161.614 46.8 163.787 44.651 163.787 42V6C163.787 3.34903 161.614 1.2 158.934 1.2ZM6.06618 0C2.71592 0 0 2.68629 0 6V42C0 45.3137 2.71592 48 6.06618 48H158.934C162.284 48 165 45.3137 165 42V6C165 2.68629 162.284 0 158.934 0H6.06618Z" fill="#A6A6A6"/>
<path d="M38.5776 24.3608C38.5907 23.3592 38.8597 22.3771 39.3595 21.506C39.8594 20.6348 40.574 19.9029 41.4367 19.3783C40.8886 18.6041 40.1656 17.967 39.325 17.5175C38.4845 17.0681 37.5495 16.8187 36.5945 16.7891C34.5572 16.5776 32.5821 17.9949 31.5439 17.9949C30.4856 17.9949 28.8872 16.8101 27.1659 16.8451C26.0526 16.8807 24.9675 17.2009 24.0165 17.7746C23.0655 18.3483 22.2809 19.1558 21.7392 20.1186C19.3928 24.1367 21.143 30.0419 23.3907 33.2899C24.5152 34.8803 25.8295 36.6568 27.5492 36.5938C29.232 36.5248 29.8605 35.5324 31.8919 35.5324C33.9043 35.5324 34.494 36.5938 36.2486 36.5538C38.0544 36.5248 39.1921 34.9563 40.2772 33.3508C41.0851 32.2176 41.7069 30.9651 42.1194 29.6398C41.0703 29.2009 40.175 28.4663 39.5452 27.5275C38.9154 26.5888 38.5789 25.4874 38.5776 24.3608V24.3608Z" fill="white"/>
<path d="M35.264 14.6531C36.2486 13.484 36.7337 11.9814 36.6162 10.4644C35.112 10.6206 33.7225 11.3317 32.7247 12.4559C32.2368 13.0051 31.8631 13.644 31.625 14.3361C31.3869 15.0283 31.2891 15.76 31.3371 16.4896C32.0894 16.4972 32.8338 16.3359 33.514 16.0178C34.1942 15.6997 34.7926 15.2331 35.264 14.6531Z" fill="white"/>
<path d="M62.9361 32.5677H57.1933L55.8142 36.5954H53.3818L58.8213 21.6938H61.3484L66.7879 36.5954H64.314L62.9361 32.5677ZM57.7881 30.7091H62.3402L60.0962 24.1724H60.0334L57.7881 30.7091Z" fill="white"/>
<path d="M78.5354 31.1637C78.5354 34.5399 76.7084 36.709 73.9514 36.709C73.253 36.7452 72.5584 36.5861 71.9472 36.2499C71.336 35.9137 70.8328 35.4141 70.4953 34.8082H70.4432V40.1895H68.1885V25.7309H70.3709V27.5379H70.4124C70.7654 26.935 71.277 26.438 71.8929 26.0997C72.5088 25.7615 73.2058 25.5948 73.9099 25.6172C76.6977 25.6172 78.5354 27.7969 78.5354 31.1637ZM76.2179 31.1637C76.2179 28.9641 75.0686 27.518 73.3151 27.518C71.5924 27.518 70.4337 28.9946 70.4337 31.1637C70.4337 33.3528 71.5924 34.8188 73.3151 34.8188C75.0687 34.8188 76.2179 33.3833 76.2179 31.1637Z" fill="white"/>
<path d="M90.6252 31.1637C90.6252 34.5399 88.7983 36.709 86.0412 36.709C85.3428 36.7452 84.6482 36.586 84.037 36.2499C83.4258 35.9137 82.9226 35.4141 82.5852 34.8082H82.533V40.1895H80.2783V25.7309H82.4607V27.5379H82.5022C82.8552 26.935 83.3668 26.4379 83.9827 26.0997C84.5986 25.7615 85.2957 25.5948 85.9997 25.6172C88.7876 25.6172 90.6252 27.7969 90.6252 31.1637ZM88.3077 31.1637C88.3077 28.9641 87.1585 27.518 85.405 27.518C83.6823 27.518 82.5235 28.9946 82.5235 31.1637C82.5235 33.3528 83.6823 34.8188 85.405 34.8188C87.1585 34.8188 88.3078 33.3833 88.3078 31.1637H88.3077Z" fill="white"/>
<path d="M98.6156 32.4434C98.7827 33.9212 100.234 34.8914 102.217 34.8914C104.118 34.8914 105.485 33.9211 105.485 32.5887C105.485 31.432 104.66 30.7395 102.708 30.2649L100.755 29.7996C97.9889 29.1387 96.7046 27.859 96.7046 25.7824C96.7046 23.2113 98.9699 21.4453 102.187 21.4453C105.37 21.4453 107.553 23.2113 107.626 25.7824H105.35C105.214 24.2953 103.971 23.3977 102.155 23.3977C100.338 23.3977 99.0955 24.3059 99.0955 25.6277C99.0955 26.6813 99.8893 27.3012 101.831 27.7757L103.491 28.1789C106.582 28.9019 107.867 30.1301 107.867 32.3097C107.867 35.0976 105.621 36.8437 102.05 36.8437C98.7092 36.8437 96.4534 35.1386 96.3076 32.4433L98.6156 32.4434Z" fill="white"/>
<path d="M112.732 23.1597V25.7308H114.82V27.4968H112.732V33.4862C112.732 34.4167 113.15 34.8503 114.068 34.8503C114.316 34.846 114.564 34.8288 114.81 34.7987V36.5542C114.397 36.6305 113.977 36.665 113.557 36.6573C111.334 36.6573 110.466 35.8311 110.466 33.7241V27.4968H108.869V25.7308H110.466V23.1597H112.732Z" fill="white"/>
<path d="M116.03 31.1638C116.03 27.7455 118.066 25.5974 121.24 25.5974C124.425 25.5974 126.451 27.7454 126.451 31.1638C126.451 34.5916 124.435 36.7302 121.24 36.7302C118.046 36.7302 116.03 34.5915 116.03 31.1638ZM124.153 31.1638C124.153 28.8189 123.067 27.4349 121.24 27.4349C119.413 27.4349 118.328 28.8294 118.328 31.1638C118.328 33.5181 119.413 34.8916 121.24 34.8916C123.067 34.8916 124.153 33.5181 124.153 31.1638H124.153Z" fill="white"/>
<path d="M128.31 25.7308H130.46V27.58H130.512C130.658 27.0025 131 26.4921 131.481 26.1346C131.962 25.7771 132.553 25.5944 133.154 25.6171C133.414 25.6162 133.673 25.6441 133.927 25.7003V27.7863C133.599 27.6871 133.257 27.6416 132.914 27.6515C132.586 27.6384 132.26 27.6955 131.956 27.8189C131.653 27.9424 131.381 28.1293 131.158 28.3668C130.934 28.6042 130.766 28.8867 130.663 29.1947C130.561 29.5027 130.527 29.829 130.564 30.1511V36.5953H128.31L128.31 25.7308Z" fill="white"/>
<path d="M144.323 33.4044C144.019 35.3767 142.077 36.7302 139.593 36.7302C136.397 36.7302 134.414 34.6126 134.414 31.2154C134.414 27.8076 136.408 25.5974 139.498 25.5974C142.537 25.5974 144.448 27.6623 144.448 30.9564V31.7205H136.69V31.8552C136.654 32.2551 136.705 32.6579 136.839 33.0369C136.972 33.4159 137.186 33.7624 137.465 34.0535C137.745 34.3445 138.084 34.5734 138.46 34.725C138.835 34.8766 139.239 34.9473 139.645 34.9326C140.178 34.9819 140.712 34.8599 141.17 34.5846C141.627 34.3092 141.982 33.8953 142.182 33.4044L144.323 33.4044ZM136.701 30.1619H142.192C142.213 29.8023 142.157 29.4426 142.03 29.1051C141.903 28.7677 141.707 28.4598 141.454 28.2009C141.201 27.942 140.897 27.7376 140.56 27.6005C140.224 27.4635 139.862 27.3967 139.498 27.4044C139.131 27.4023 138.767 27.4721 138.427 27.6097C138.087 27.7474 137.779 27.9503 137.519 28.2067C137.258 28.463 137.052 28.7678 136.912 29.1034C136.772 29.439 136.7 29.7987 136.701 30.1619V30.1619Z" fill="white"/>
<path d="M57.5065 10.4774C57.9791 10.4438 58.4535 10.5144 58.8952 10.6842C59.337 10.8539 59.7352 11.1185 60.061 11.4588C60.3869 11.7992 60.6323 12.2068 60.7796 12.6523C60.9269 13.0978 60.9724 13.5702 60.9128 14.0352C60.9128 16.3227 59.6628 17.6376 57.5065 17.6376H54.8916V10.4774H57.5065ZM56.016 16.625H57.3809C57.7186 16.6449 58.0567 16.5902 58.3703 16.4646C58.684 16.3391 58.9654 16.1459 59.1941 15.8993C59.4228 15.6526 59.593 15.3586 59.6923 15.0386C59.7916 14.7187 59.8176 14.3809 59.7682 14.0498C59.814 13.72 59.7854 13.3842 59.6846 13.0666C59.5837 12.749 59.4131 12.4574 59.1849 12.2127C58.9568 11.968 58.6767 11.7762 58.3648 11.6512C58.0529 11.5261 57.7169 11.4708 57.3809 11.4892H56.016V16.625Z" fill="white"/>
<path d="M62.1831 14.9333C62.1487 14.5782 62.1898 14.2199 62.3037 13.8814C62.4175 13.5429 62.6016 13.2317 62.8442 12.9678C63.0868 12.7038 63.3825 12.4929 63.7123 12.3485C64.0421 12.2042 64.3988 12.1296 64.7594 12.1296C65.1201 12.1296 65.4768 12.2042 65.8066 12.3485C66.1364 12.4929 66.4321 12.7038 66.6747 12.9678C66.9172 13.2317 67.1014 13.5429 67.2152 13.8814C67.3291 14.2199 67.3701 14.5782 67.3358 14.9333C67.3708 15.2888 67.3302 15.6475 67.2167 15.9866C67.1031 16.3256 66.9191 16.6374 66.6765 16.9019C66.4338 17.1664 66.1379 17.3777 65.8078 17.5224C65.4776 17.667 65.1205 17.7417 64.7594 17.7417C64.3983 17.7417 64.0413 17.667 63.7111 17.5224C63.381 17.3777 63.0851 17.1664 62.8424 16.9019C62.5998 16.6374 62.4158 16.3256 62.3022 15.9866C62.1887 15.6475 62.1481 15.2888 62.1831 14.9333V14.9333ZM66.2268 14.9333C66.2268 13.762 65.6948 13.077 64.7612 13.077C63.824 13.077 63.2968 13.762 63.2968 14.9333C63.2968 16.114 63.8241 16.7937 64.7612 16.7937C65.6948 16.7936 66.2268 16.1093 66.2268 14.9333H66.2268Z" fill="white"/>
<path d="M74.1852 17.6372H73.0667L71.9376 13.6575H71.8523L70.7279 17.6372H69.6201L68.1143 12.2336H69.2078L70.1865 16.3568H70.2671L71.3902 12.2336H72.4246L73.5478 16.3568H73.6331L74.607 12.2336H75.6851L74.1852 17.6372Z" fill="white"/>
<path d="M76.9512 12.2336H77.9891V13.092H78.0696C78.2063 12.7837 78.4368 12.5253 78.7291 12.3527C79.0213 12.1802 79.3607 12.1021 79.6999 12.1293C79.9657 12.1096 80.2326 12.1492 80.4809 12.2453C80.7291 12.3414 80.9523 12.4916 81.1339 12.6846C81.3155 12.8776 81.4509 13.1086 81.53 13.3603C81.6091 13.6121 81.6299 13.8783 81.5909 14.1391V17.6371H80.5127V14.4069C80.5127 13.5385 80.1312 13.1067 79.3338 13.1067C79.1533 13.0984 78.9732 13.1288 78.8057 13.1958C78.6382 13.2628 78.4873 13.3648 78.3634 13.4948C78.2395 13.6249 78.1455 13.7799 78.0878 13.9493C78.0302 14.1186 78.0102 14.2983 78.0293 14.476V17.6372H76.9512L76.9512 12.2336Z" fill="white"/>
<path d="M83.3096 10.1245H84.3877V17.6374H83.3096V10.1245Z" fill="white"/>
<path d="M85.8862 14.9331C85.8519 14.578 85.893 14.2197 86.0068 13.8812C86.1207 13.5427 86.3049 13.2315 86.5475 12.9675C86.7901 12.7035 87.0858 12.4926 87.4156 12.3483C87.7455 12.204 88.1022 12.1294 88.4628 12.1294C88.8235 12.1294 89.1802 12.204 89.5101 12.3483C89.8399 12.4926 90.1356 12.7035 90.3782 12.9675C90.6208 13.2315 90.8049 13.5427 90.9188 13.8812C91.0327 14.2197 91.0738 14.578 91.0395 14.9331C91.0744 15.2886 91.0338 15.6474 90.9202 15.9864C90.8066 16.3255 90.6226 16.6372 90.3799 16.9017C90.1373 17.1662 89.8414 17.3776 89.5112 17.5222C89.181 17.6668 88.8239 17.7416 88.4628 17.7416C88.1017 17.7416 87.7446 17.6668 87.4145 17.5222C87.0843 17.3776 86.7884 17.1662 86.5457 16.9017C86.3031 16.6372 86.119 16.3255 86.0054 15.9864C85.8918 15.6474 85.8512 15.2886 85.8862 14.9331V14.9331ZM89.9299 14.9331C89.9299 13.7619 89.3979 13.0769 88.4643 13.0769C87.5271 13.0769 86.9999 13.7619 86.9999 14.9332C86.9999 16.1138 87.5272 16.7935 88.4643 16.7935C89.3979 16.7935 89.9299 16.1091 89.9299 14.9331H89.9299Z" fill="white"/>
<path d="M92.1738 16.1091C92.1738 15.1364 92.906 14.5757 94.2058 14.496L95.6856 14.4116V13.9452C95.6856 13.3745 95.3041 13.0522 94.5671 13.0522C93.9653 13.0522 93.5482 13.2708 93.4285 13.6528H92.3847C92.4949 12.7247 93.3776 12.1294 94.6169 12.1294C95.9865 12.1294 96.759 12.8038 96.759 13.9452V17.6372H95.7211V16.8778H95.6358C95.4627 17.1502 95.2195 17.3723 94.9312 17.5213C94.6429 17.6704 94.3198 17.7411 93.9949 17.7262C93.7655 17.7498 93.5337 17.7256 93.3144 17.6552C93.0951 17.5847 92.8932 17.4696 92.7216 17.3173C92.55 17.1649 92.4126 16.9787 92.3183 16.7706C92.2239 16.5625 92.1747 16.3371 92.1738 16.1091V16.1091ZM95.6856 15.6474V15.1956L94.3515 15.28C93.5991 15.3298 93.2579 15.5829 93.2579 16.0593C93.2579 16.5456 93.6844 16.8286 94.271 16.8286C94.4428 16.8458 94.6164 16.8286 94.7814 16.7781C94.9464 16.7276 95.0995 16.6448 95.2314 16.5346C95.3634 16.4244 95.4717 16.289 95.5497 16.1366C95.6277 15.9842 95.6739 15.8178 95.6856 15.6474V15.6474Z" fill="white"/>
<path d="M98.1758 14.9333C98.1758 13.2259 99.0632 12.1443 100.443 12.1443C100.785 12.1287 101.124 12.2096 101.42 12.3775C101.717 12.5453 101.959 12.7933 102.119 13.0923H102.199V10.1245H103.278V17.6374H102.244V16.7837H102.159C101.987 17.0807 101.737 17.3255 101.434 17.4917C101.132 17.6579 100.789 17.7391 100.443 17.7265C99.0537 17.7265 98.1758 16.6448 98.1758 14.9333ZM99.2895 14.9333C99.2895 16.0794 99.8357 16.7691 100.749 16.7691C101.658 16.7691 102.22 16.0695 102.22 14.938C102.22 13.8118 101.652 13.1023 100.749 13.1023C99.8416 13.1023 99.2895 13.7966 99.2895 14.9333H99.2895Z" fill="white"/>
<path d="M107.739 14.9333C107.704 14.5782 107.745 14.2199 107.859 13.8814C107.973 13.5429 108.157 13.2317 108.4 12.9678C108.642 12.7038 108.938 12.4929 109.268 12.3485C109.598 12.2042 109.954 12.1296 110.315 12.1296C110.676 12.1296 111.032 12.2042 111.362 12.3485C111.692 12.4929 111.988 12.7038 112.23 12.9678C112.473 13.2317 112.657 13.5429 112.771 13.8814C112.885 14.2199 112.926 14.5782 112.891 14.9333C112.926 15.2888 112.886 15.6475 112.772 15.9866C112.659 16.3256 112.475 16.6374 112.232 16.9019C111.989 17.1664 111.694 17.3777 111.363 17.5224C111.033 17.667 110.676 17.7417 110.315 17.7417C109.954 17.7417 109.597 17.667 109.267 17.5224C108.937 17.3777 108.641 17.1664 108.398 16.9019C108.155 16.6374 107.971 16.3256 107.858 15.9866C107.744 15.6475 107.704 15.2888 107.739 14.9333V14.9333ZM111.782 14.9333C111.782 13.762 111.25 13.077 110.317 13.077C109.38 13.077 108.853 13.762 108.853 14.9333C108.853 16.114 109.38 16.7937 110.317 16.7937C111.251 16.7936 111.782 16.1093 111.782 14.9333Z" fill="white"/>
<path d="M114.338 12.2336H115.376V13.092H115.456C115.593 12.7837 115.824 12.5253 116.116 12.3527C116.408 12.1802 116.747 12.1021 117.087 12.1293C117.352 12.1096 117.619 12.1492 117.868 12.2453C118.116 12.3414 118.339 12.4916 118.521 12.6846C118.702 12.8776 118.838 13.1086 118.917 13.3603C118.996 13.6121 119.017 13.8783 118.978 14.1391V17.6371H117.899V14.4069C117.899 13.5385 117.518 13.1067 116.721 13.1067C116.54 13.0984 116.36 13.1288 116.192 13.1958C116.025 13.2628 115.874 13.3648 115.75 13.4948C115.626 13.6249 115.532 13.7799 115.475 13.9493C115.417 14.1186 115.397 14.2983 115.416 14.476V17.6372H114.338V12.2336Z" fill="white"/>
<path d="M125.072 10.8887V12.2586H126.255V13.1568H125.072V15.9354C125.072 16.5014 125.307 16.7492 125.844 16.7492C125.982 16.7488 126.119 16.7406 126.255 16.7246V17.6129C126.062 17.6471 125.865 17.6654 125.669 17.6674C124.47 17.6674 123.992 17.2502 123.992 16.2084V13.1568H123.125V12.2585H123.992V10.8887H125.072Z" fill="white"/>
<path d="M127.727 10.1245H128.795V13.1023H128.881C129.024 12.7911 129.261 12.5312 129.559 12.3579C129.857 12.1847 130.202 12.1066 130.546 12.1343C130.811 12.1201 131.075 12.1637 131.321 12.2622C131.566 12.3606 131.786 12.5114 131.966 12.7038C132.146 12.8962 132.28 13.1255 132.36 13.3753C132.44 13.625 132.463 13.8891 132.428 14.1487V17.6374H131.349V14.4118C131.349 13.5487 130.942 13.1116 130.18 13.1116C129.995 13.0966 129.809 13.1218 129.634 13.1854C129.46 13.2491 129.301 13.3497 129.17 13.4802C129.039 13.6107 128.939 13.7679 128.876 13.9409C128.813 14.1138 128.788 14.2984 128.805 14.4815V17.6374H127.727L127.727 10.1245Z" fill="white"/>
<path d="M138.715 16.1783C138.568 16.6722 138.251 17.0993 137.818 17.3851C137.386 17.6709 136.865 17.7971 136.348 17.7416C135.988 17.751 135.63 17.6828 135.299 17.5418C134.969 17.4007 134.673 17.1902 134.433 16.9249C134.193 16.6595 134.014 16.3456 133.909 16.005C133.804 15.6645 133.775 15.3053 133.824 14.9525C133.776 14.5987 133.806 14.2388 133.911 13.8971C134.015 13.5555 134.193 13.2402 134.432 12.9725C134.671 12.7048 134.965 12.491 135.295 12.3456C135.625 12.2001 135.982 12.1264 136.343 12.1295C137.863 12.1295 138.78 13.1567 138.78 14.8535V15.2256H134.922V15.2854C134.905 15.4836 134.931 15.6832 134.996 15.8713C135.062 16.0594 135.167 16.2319 135.304 16.3776C135.441 16.5234 135.607 16.6392 135.792 16.7177C135.977 16.7962 136.176 16.8356 136.377 16.8334C136.635 16.864 136.897 16.818 137.128 16.7014C137.359 16.5847 137.551 16.4027 137.677 16.1783L138.715 16.1783ZM134.922 14.4369H137.682C137.695 14.2556 137.67 14.0734 137.609 13.9021C137.547 13.7309 137.449 13.5743 137.323 13.4425C137.196 13.3106 137.043 13.2065 136.873 13.1367C136.703 13.0668 136.521 13.0329 136.337 13.0371C136.151 13.0348 135.965 13.0694 135.793 13.139C135.62 13.2085 135.463 13.3115 135.331 13.442C135.199 13.5724 135.095 13.7277 135.025 13.8985C134.955 14.0694 134.92 14.2525 134.922 14.4369H134.922Z" fill="white"/>
</g>
<defs>
<clipPath id="clip0_1785_139978">
<rect width="165" height="48" fill="white"/>
</clipPath>
</defs>
</svg>
