<svg xmlns="http://www.w3.org/2000/svg" width="58" height="58" viewBox="0 0 58 58" fill="none">
  <path fill-rule="evenodd" clip-rule="evenodd" d="M24.9365 5.17859L39.8149 9.22601L36.7065 11.0231L21.8281 6.97565L24.9365 5.17859Z" fill="#0090BC"/>
  <path fill-rule="evenodd" clip-rule="evenodd" d="M39.7993 9.24219L50.3224 23.5862L47.214 25.3833L36.707 11.0231L39.7993 9.24219Z" fill="#54B663"/>
  <path fill-rule="evenodd" clip-rule="evenodd" d="M41.9523 18.1951C40.2039 15.8151 38.4554 13.4191 36.7069 11.023C34.2299 10.3592 31.7528 9.66309 29.2596 8.99932C26.7826 8.33553 24.3056 7.65556 21.8286 6.97559C20.0801 8.41646 18.3154 9.85734 16.5669 11.2983C14.8184 12.7391 13.0537 14.18 11.3053 15.6047C11.2891 18.3246 11.2891 21.0283 11.2891 23.7319V31.8592C13.0375 34.239 14.7861 36.6351 16.5507 39.0312C18.2992 41.4272 20.0639 43.8072 21.8124 46.2034C24.2894 46.8671 26.7664 47.5633 29.2434 48.2269C31.7204 48.9067 34.1975 49.5708 36.6745 50.2505C38.423 48.8099 40.1877 47.385 41.9362 45.944C43.6846 44.5034 45.4331 43.0624 47.1978 41.6215V33.4943C47.1978 30.7744 47.2138 28.0708 47.2138 25.3671C45.4493 22.9872 43.7008 20.5912 41.9523 18.1951Z" fill="#FCEC29"/>
  <path fill-rule="evenodd" clip-rule="evenodd" d="M21.8281 6.97559L28.8053 29.3183L36.7064 11.023L21.8281 6.97559Z" fill="#36C6FF"/>
  <path fill-rule="evenodd" clip-rule="evenodd" d="M36.7058 11.0231L47.2128 25.3671L28.8047 29.3184L36.7058 11.0231Z" fill="#83C77D"/>
  <path fill-rule="evenodd" clip-rule="evenodd" d="M28.8047 29.3183L47.1967 41.6215L47.2128 25.3671L28.8047 29.3183Z" fill="#B966BB"/>
  <path fill-rule="evenodd" clip-rule="evenodd" d="M28.8047 29.3184L36.6734 50.2506L47.1967 41.6216L28.8047 29.3184Z" fill="#FF6E6E"/>
  <path fill-rule="evenodd" clip-rule="evenodd" d="M28.8136 29.3225L11.2969 31.8634L21.8202 46.2076L28.8136 29.3225Z" fill="#36C6FF"/>
  <path fill-rule="evenodd" clip-rule="evenodd" d="M28.8057 29.3183L11.3053 15.6047L11.2891 31.8592L28.8057 29.3183Z" fill="#B966BB"/>
  <path fill-rule="evenodd" clip-rule="evenodd" d="M50.3237 23.5863L50.3077 39.8407L47.1992 41.6215L47.2153 25.3833L50.3237 23.5863Z" fill="#AA4191"/>
  <path fill-rule="evenodd" clip-rule="evenodd" d="M50.2919 39.8407L39.7686 48.4535L36.6602 50.2506L47.1996 41.6215L50.2919 39.8407Z" fill="#1D1D1B"/>
  <path fill-rule="evenodd" clip-rule="evenodd" d="M28.8136 29.3206L21.8203 46.2056L36.6824 50.2528L28.8136 29.3206Z" fill="#36C6FF"/>
  <path fill-rule="evenodd" clip-rule="evenodd" d="M34.9919 39.3396L36.6168 39.8596L34.7701 41.048L33.8744 43.2674L32.6405 44.024L30.6797 43.4175L32.5942 42.3119L33.3723 40.2739L34.9919 39.3396Z" fill="#96867E"/>
  <path fill-rule="evenodd" clip-rule="evenodd" d="M18.4221 24.976L15.8713 24.22L14.1236 23.7478L9.21094 26.5348L11.0059 27.0071L13.5095 27.7157L18.4221 24.976Z" fill="white"/>
  <path fill-rule="evenodd" clip-rule="evenodd" d="M16.25 20.3468L17.7143 19.4966L19.4149 17.8905L17.9505 18.7408L16.25 20.3468Z" fill="#9094A3"/>
  <path fill-rule="evenodd" clip-rule="evenodd" d="M13.8867 22.0001L15.3511 21.1498L17.4767 19.0714L16.0124 19.9217L13.8867 22.0001Z" fill="#9094A3"/>
  <path fill-rule="evenodd" clip-rule="evenodd" d="M13.8867 26.2041L15.3511 25.3538V21.1498L13.8867 22V26.2041Z" fill="#7B839B"/>
  <path fill-rule="evenodd" clip-rule="evenodd" d="M14.4083 29.4164L17.4787 27.7158L19.3209 30.3611L17.4787 35.0847L14.4083 36.8326L12.6133 34.1872L14.4083 29.4164Z" fill="#202023"/>
  <path fill-rule="evenodd" clip-rule="evenodd" d="M16.5812 35.6041L14.4083 36.8323L12.6133 34.1872L14.1721 30.0775L16.345 28.8494L18.1872 31.4946L16.5812 35.6041Z" fill="#3E3F52"/>
  <path fill-rule="evenodd" clip-rule="evenodd" d="M32.4413 49.0414L7.67969 42.3869L12.5966 39.537L37.2822 46.1747L32.4413 49.0414Z" fill="#53659A"/>
  <path fill-rule="evenodd" clip-rule="evenodd" d="M7.67969 46.1574L32.4413 52.8123V49.0413L7.67969 42.3868V46.1574Z" fill="#1D1828"/>
  <path fill-rule="evenodd" clip-rule="evenodd" d="M34.4116 44.2019V45.4024L29.2462 48.227V49.6301L26.0526 51.0949L12.7118 47.5095L11.5766 45.4633L11.5039 43.4142L34.4116 44.2019Z" fill="#676362"/>
  <path fill-rule="evenodd" clip-rule="evenodd" d="M35.5885 25.1788L35.58 27.2082L35.5461 37.8118L34.1966 39.5285L32.6872 43.3336L24.4727 48.0773L28.1627 34.7423L25.9823 30.7512L27.3064 29.9226L35.5885 25.1788Z" fill="#AD9B8F"/>
  <path fill-rule="evenodd" clip-rule="evenodd" d="M25.9564 49.0414L24.6196 50.71L12.7113 47.5096L11.5761 45.4634L11.5742 45.0852L25.9564 49.0414Z" fill="#4C4645"/>
  <path fill-rule="evenodd" clip-rule="evenodd" d="M27.2951 40.5601L25.8867 44.3144L34.1938 39.5283L35.6783 35.5964L27.2951 40.5601Z" fill="#D79B91"/>
  <path fill-rule="evenodd" clip-rule="evenodd" d="M27.3051 29.9226L24.2351 25.9145L13.4652 23.0226L11.2218 25.6439L11.1797 36.6534L13.305 45.0588L15.2026 47.4094L21.0978 49.0076L24.4713 48.0773L27.2965 40.56L27.3051 29.9226Z" fill="#E8B1AC"/>
  <path fill-rule="evenodd" clip-rule="evenodd" d="M15.7077 34.6409L17.2595 33.5332L17.6727 39.8158L18.1703 39.9512L18.1788 41.8536L16.7451 42.6825L12.9414 41.6592L12.9499 39.7737L14.1137 39.1225L14.7041 37.3722V35.2244L15.7077 34.6409ZM15.7245 40.5178L13.827 40.0105L12.9583 39.7737L15.7245 40.5178Z" fill="#D79B91"/>
  <path fill-rule="evenodd" clip-rule="evenodd" d="M21.7455 43.0375L18.0009 42.6064L14.7539 41.5747L14.7624 41.7522L15.9599 43.2995L20.2864 44.3059L21.7539 43.4858L21.7455 43.0375Z" fill="#7C5050"/>
  <path fill-rule="evenodd" clip-rule="evenodd" d="M15.0781 41.7439L16.1071 43.0885L20.2058 44.0861L21.5215 43.2155L17.9962 42.9194L15.0781 41.7439Z" fill="white"/>
  <path fill-rule="evenodd" clip-rule="evenodd" d="M15.0781 41.7439L16.1071 43.0885L16.9588 43.2916L17.7769 42.826L15.0781 41.7439Z" fill="#B8BDBF"/>
  <path fill-rule="evenodd" clip-rule="evenodd" d="M18.1696 42.8092L21.7455 43.0376L19.3503 42.192L18.0347 42.2936L17.0142 41.634L14.7539 41.1604L18.1696 42.8092Z" fill="#BE8281"/>
  <path fill-rule="evenodd" clip-rule="evenodd" d="M21.7455 43.1221L17.9925 42.6826L14.7539 41.3129V41.6169L17.9925 42.9193L21.7539 43.2407L21.7455 43.1221Z" fill="#7C5050"/>
  <path fill-rule="evenodd" clip-rule="evenodd" d="M16.4828 33.4486L12.3672 32.3494V34.3957L16.4744 35.5034L16.4828 33.4486Z" fill="white"/>
  <path fill-rule="evenodd" clip-rule="evenodd" d="M15.5303 33.1949L13.0508 32.5354V34.5817L15.5303 35.2497V33.1949Z" fill="#090A05"/>
  <path fill-rule="evenodd" clip-rule="evenodd" d="M15.2271 33.1104L13.3717 32.62L13.3633 34.6663L15.2187 35.1652L15.2271 33.1104Z" fill="#516C81"/>
  <path fill-rule="evenodd" clip-rule="evenodd" d="M24.3813 35.5161L20.2656 34.4169L20.2741 36.4632L24.3813 37.5708V35.5161Z" fill="white"/>
  <path fill-rule="evenodd" clip-rule="evenodd" d="M23.4287 35.2624L20.9492 34.6029V36.6408L23.4287 37.3087V35.2624Z" fill="#090A05"/>
  <path fill-rule="evenodd" clip-rule="evenodd" d="M23.1177 35.1779L21.2539 34.6791L21.2624 36.7253L23.1178 37.2242L23.1177 35.1779Z" fill="#516C81"/>
  <path fill-rule="evenodd" clip-rule="evenodd" d="M22.622 35.5753L21.7617 35.347V36.3025L22.622 36.5393V35.5753Z" fill="#090A05"/>
  <path fill-rule="evenodd" clip-rule="evenodd" d="M23.4305 35.6852L22.5703 35.4569V36.4124L23.4305 36.6491V35.6852Z" fill="white"/>
  <path fill-rule="evenodd" clip-rule="evenodd" d="M14.7235 33.5164L13.8633 33.2881V34.2436L14.7235 34.4719V33.5164Z" fill="#090A05"/>
  <path fill-rule="evenodd" clip-rule="evenodd" d="M15.5321 33.6262L14.6719 33.3978V34.3533L15.5321 34.5816V33.6262Z" fill="white"/>
  <path fill-rule="evenodd" clip-rule="evenodd" d="M17.7659 36.459L19.2333 34.0745L19.1153 40.5855L17.2852 41.3042V39.4186L17.7659 36.459Z" fill="#BE8281"/>
  <path fill-rule="evenodd" clip-rule="evenodd" d="M14.7969 38.7505V40.6361L18.1535 41.5155V39.6213L14.7969 38.7505Z" fill="#E8B1AC"/>
  <path fill-rule="evenodd" clip-rule="evenodd" d="M15.9364 37.8879L14.5195 38.6743L15.3882 38.9111L16.8135 38.0656L15.9364 37.8879Z" fill="#BE8281"/>
  <path fill-rule="evenodd" clip-rule="evenodd" d="M16.3735 36.5604L17.7988 36.8987L17.318 39.4015L15.3867 38.9112L16.3735 36.5604Z" fill="#F9D1CF"/>
  <path fill-rule="evenodd" clip-rule="evenodd" d="M17.269 33.5332L19.234 34.0744L17.8003 36.8986L16.375 36.5604L17.269 33.5332Z" fill="#F9D1CF"/>
  <path fill-rule="evenodd" clip-rule="evenodd" d="M24.4727 48.0773L25.8895 44.3143L34.1966 39.5283L32.6872 43.3335L24.4727 48.0773Z" fill="#BE8281"/>
  <path fill-rule="evenodd" clip-rule="evenodd" d="M34.1791 36.1207L29.7852 34.9369V41.7608L31.7586 42.2849L34.1791 40.8813L34.1791 36.1207Z" fill="#E8B1AC"/>
  <path fill-rule="evenodd" clip-rule="evenodd" d="M32.8948 37.5581L30.9805 37.0677V40.1879L31.8408 40.4163L32.8948 39.8074V37.5581Z" fill="#BE8281"/>
  <path fill-rule="evenodd" clip-rule="evenodd" d="M35.6803 35.2498L34.1791 36.1207L29.7852 34.9369L31.3032 34.0575L35.6803 35.2498Z" fill="#F9D1CF"/>
  <path fill-rule="evenodd" clip-rule="evenodd" d="M28.544 20.9833L31.8578 18.9766L34.0243 20.0979L36.3897 19.479L34.2117 22.3134L32.606 21.5037L28.4766 24.1737L28.544 20.9833Z" fill="#AD9B8F"/>
  <path fill-rule="evenodd" clip-rule="evenodd" d="M31.8544 18.9765L29.3545 18.1829L25.8398 20.267L28.5406 20.9832L31.8544 18.9765Z" fill="#CEBBAD"/>
  <path fill-rule="evenodd" clip-rule="evenodd" d="M25.8398 20.2671V22.3506L26.7696 23.7691L28.4732 24.1737L28.5406 20.9833L25.8398 20.2671Z" fill="#96867E"/>
  <path fill-rule="evenodd" clip-rule="evenodd" d="M19.5323 18.8487L22.846 16.842L25.0126 17.9634L27.378 17.3445L25.2 20.1789L23.5943 19.3692L19.4648 22.0392L19.5323 18.8487Z" fill="#AD9B8F"/>
  <path fill-rule="evenodd" clip-rule="evenodd" d="M22.8465 16.842L20.3467 16.0483L16.832 18.1325L19.5328 18.8487L22.8465 16.842Z" fill="#CEBBAD"/>
  <path fill-rule="evenodd" clip-rule="evenodd" d="M16.832 18.1324V20.216L17.7618 21.6345L19.4654 22.0391L19.5328 18.8486L16.832 18.1324Z" fill="#96867E"/>
  <path fill-rule="evenodd" clip-rule="evenodd" d="M35.6809 40.0189L34.1797 40.8813V36.1207L35.6809 35.2498V40.0189Z" fill="#BE8281"/>
  <path fill-rule="evenodd" clip-rule="evenodd" d="M37.2823 50.0145L32.4414 52.8215V49.0414L37.2823 46.1747V50.0145Z" fill="#213D63"/>
  <path fill-rule="evenodd" clip-rule="evenodd" d="M19.6367 41.1097L19.6282 39.2072L18.1523 39.6214V41.5155L19.6367 41.1097Z" fill="#F9D1CF"/>
  <path fill-rule="evenodd" clip-rule="evenodd" d="M18.6936 38.911L17.2852 39.4185L18.1538 39.6213L19.6298 39.2071L18.6936 38.911Z" fill="#D79B91"/>
  <path fill-rule="evenodd" clip-rule="evenodd" d="M16.8387 32.0902L12.293 30.8726V32.0986L16.8303 33.3247L16.8387 32.0902Z" fill="#96867E"/>
  <path fill-rule="evenodd" clip-rule="evenodd" d="M20.4671 16.9935L12.8008 21.4328L25.9574 24.9674L33.4466 20.4773L20.4671 16.9935Z" fill="#CEBBAD"/>
  <path fill-rule="evenodd" clip-rule="evenodd" d="M33.4462 20.4773L25.957 24.9673V28.1637L27.3065 29.9225L35.5885 25.1787L33.4462 20.4773Z" fill="#C4B0A5"/>
  <path fill-rule="evenodd" clip-rule="evenodd" d="M16.5 44.6101L17.1747 46.2929L18.4988 46.6482L19.2241 45.3377L16.5 44.6101Z" fill="#BE8281"/>
  <path fill-rule="evenodd" clip-rule="evenodd" d="M24.62 34.1492L20.0742 32.9315V34.1661L24.6116 35.3837L24.62 34.1492Z" fill="#96867E"/>
  <path fill-rule="evenodd" clip-rule="evenodd" d="M27.3057 36.3744L28.1618 34.7423L27.3024 33.98L27.3057 29.9226L26.2344 33.3473L27.3057 36.3744Z" fill="#D79B91"/>
  <path fill-rule="evenodd" clip-rule="evenodd" d="M11.2227 32.1042V25.6439L12.2938 29.077L11.2227 32.1042Z" fill="#D79B91"/>
  <path fill-rule="evenodd" clip-rule="evenodd" d="M15.3867 38.8859V40.7798L17.318 41.2957V39.4016L15.3867 38.8859Z" fill="#F9D1CF"/>
  <path fill-rule="evenodd" clip-rule="evenodd" d="M25.9574 28.1638V24.9674L12.8008 21.4329V23.809L13.4671 23.0226L24.237 25.9145L25.9574 28.1638Z" fill="#96867E"/>
  <path fill-rule="evenodd" clip-rule="evenodd" d="M18.8025 24.4554L10.1953 28.4695L10.2235 25.644L12.8002 21.4329L18.8025 24.4554Z" fill="#96867E"/>
  <path fill-rule="evenodd" clip-rule="evenodd" d="M10.1953 28.4694L11.2097 29.1318V27.9963L10.1953 28.4694Z" fill="#AD9B8F"/>
  <path fill-rule="evenodd" clip-rule="evenodd" d="M27.3047 29.9226L31.1573 27.7158L33.8008 28.6309L27.3047 32.3494V29.9226Z" fill="#CEBBAD"/>
  <path fill-rule="evenodd" clip-rule="evenodd" d="M27.3047 32.3494L33.8008 28.6309L34.688 30.2438L36.6595 29.6748L33.9439 32.8408L32.1983 32.3494L27.3047 35.2497L28.1609 34.7423L27.3047 32.3494Z" fill="#AD9B8F"/>
  <path fill-rule="evenodd" clip-rule="evenodd" d="M33.9439 32.8408L35.5662 30.9495L34.5047 33.4076L32.8961 34.4917L31.3021 34.0575L29.7841 34.9369V37.0677L27.3047 38.3995V36.3744L28.1609 34.7423L32.1983 32.3494L33.9439 32.8408Z" fill="#96867E"/>
  <path fill-rule="evenodd" clip-rule="evenodd" d="M25.9542 25.6836L29.2679 23.6769L31.4345 24.7982L33.7998 24.1793L31.6219 27.0137L30.0161 26.204L25.8867 28.8741L25.9542 25.6836Z" fill="#AD9B8F"/>
  <path fill-rule="evenodd" clip-rule="evenodd" d="M29.2684 23.6769L26.7686 22.8833L23.2539 24.9675L25.9547 25.6836L29.2684 23.6769Z" fill="#CEBBAD"/>
  <path fill-rule="evenodd" clip-rule="evenodd" d="M27.3037 29.9225L31.1563 27.7158L32.4502 28.1637L33.7998 24.1793L31.6219 27.0137L30.0161 26.204L26.3008 28.6132L27.3037 29.9225Z" fill="#96867E"/>
  <path fill-rule="evenodd" clip-rule="evenodd" d="M21.1719 41.7438L22.186 42.9149V45.1989L22.6203 45.313V42.8031L21.3837 41.5155L21.1719 41.7438Z" fill="#D79B91"/>
  <path fill-rule="evenodd" clip-rule="evenodd" d="M13.7227 40.9778V43.0375L14.1301 43.1617V41.646L13.7227 40.9778Z" fill="#D79B91"/>
  <path fill-rule="evenodd" clip-rule="evenodd" d="M20.2656 34.4169L24.3813 35.5161V35.8534L20.2656 34.755V34.4169Z" fill="#090A05"/>
  <path fill-rule="evenodd" clip-rule="evenodd" d="M12.3633 32.3435L16.479 33.4428V33.78L12.3633 32.6817V32.3435Z" fill="#090A05"/>
  <path fill-rule="evenodd" clip-rule="evenodd" d="M12.3672 34.3957V33.8926L16.4828 34.9729L16.4744 35.5035L12.3672 34.3957Z" fill="#D79B91"/>
  <path fill-rule="evenodd" clip-rule="evenodd" d="M20.2734 36.4657V35.9625L24.3891 37.0428L24.3807 37.5734L20.2734 36.4657Z" fill="#D79B91"/>
  <path fill-rule="evenodd" clip-rule="evenodd" d="M21.4414 36.9395L22.8888 37.3193V37.4894L21.4414 37.1089V36.9395Z" fill="#D79B91"/>
  <path fill-rule="evenodd" clip-rule="evenodd" d="M13.4883 34.8871L14.9356 35.2669V35.437L13.4883 35.0565V34.8871Z" fill="#D79B91"/>
  <path fill-rule="evenodd" clip-rule="evenodd" d="M23.2539 24.9674V27.0509L24.1837 28.4694L25.8872 28.8741L25.9547 25.6836L23.2539 24.9674Z" fill="#96867E"/>
  <path fill-rule="evenodd" clip-rule="evenodd" d="M27.304 29.9226L28.1602 31.8593V34.7423L27.3008 33.98L27.304 29.9226Z" fill="#96867E"/>
  <path fill-rule="evenodd" clip-rule="evenodd" d="M16.8139 23.9217V26.2041L13.5113 27.7157L11.4414 27.2135V22.5068L16.8139 23.9217Z" fill="#96867E"/>
  <path fill-rule="evenodd" clip-rule="evenodd" d="M11.4414 22.5068L16.0148 19.9216L21.7603 21.4328L16.8139 23.9217L11.4414 22.5068Z" fill="#CEBBAD"/>
  <path fill-rule="evenodd" clip-rule="evenodd" d="M16.8125 23.9217L21.7589 21.4329V22.1351L19.5771 23.224L19.5623 24.66L16.8125 26.2041V23.9217Z" fill="#AD9B8F"/>
  <path fill-rule="evenodd" clip-rule="evenodd" d="M15.0898 21.4327L18.4227 22.3593L19.4147 20.4772L16.2957 19.63L15.0898 21.4327Z" fill="#96867E"/>
  <path fill-rule="evenodd" clip-rule="evenodd" d="M16.2969 19.63L19.6974 17.7894L24.3284 17.8904L19.4159 20.4773L16.2969 19.63Z" fill="#CEBBAD"/>
  <path fill-rule="evenodd" clip-rule="evenodd" d="M24.3303 17.8905L23.4753 20.2265L21.4142 21.3413L20.7728 21.1726L18.4258 22.3594L19.4178 20.4773L24.3303 17.8905Z" fill="#AD9B8F"/>
  <path fill-rule="evenodd" clip-rule="evenodd" d="M27.8534 18.9765L20.0491 23.3806L19.5781 23.2239L27.3792 18.8492L27.8534 18.9765Z" fill="#96867E"/>
  <path fill-rule="evenodd" clip-rule="evenodd" d="M30.6254 19.7208L23.2539 24.2418L23.7147 24.3657L31.1118 19.8514L30.6254 19.7208Z" fill="#96867E"/>
  <path fill-rule="evenodd" clip-rule="evenodd" d="M33.4464 20.4773L28.5117 23.4359L28.9965 23.5898L33.5955 20.8044L33.4464 20.4773Z" fill="#96867E"/>
  <path fill-rule="evenodd" clip-rule="evenodd" d="M35.588 25.1787L32.5469 26.9207V27.3202L35.588 25.6836V25.1787Z" fill="#96867E"/>
  <path fill-rule="evenodd" clip-rule="evenodd" d="M23.8477 19.2063L25.371 18.3099L25.0117 18.1829L24.01 18.7627L23.8477 19.2063Z" fill="#96867E"/>
  <path fill-rule="evenodd" clip-rule="evenodd" d="M29.2687 22.0129L14.0037 17.7709L13.9857 17.8094L13.5699 18.6966L12.3047 21.3968L13.2656 22.9571L16.7495 23.8844L19.2211 21.0803L21.2415 21.659L20.5733 24.9854L24.5167 26.0725L27.4257 24.9009L28.4017 22.8179L28.8349 22.9386L29.2687 22.0129Z" fill="#514C4A"/>
  <path fill-rule="evenodd" clip-rule="evenodd" d="M29.2697 22.0128L36.3877 28.1637V31.5205L35.0701 33.0618L34.5221 32.5354L35.6801 31.2944V28.6309L28.8359 22.9386L29.2697 22.0128Z" fill="#2F2724"/>
  <path fill-rule="evenodd" clip-rule="evenodd" d="M16.75 23.8844L17.0499 24.3657L19.9117 21.278L19.2216 21.0803L16.75 23.8844Z" fill="#2F2724"/>
  <path fill-rule="evenodd" clip-rule="evenodd" d="M13.2656 22.957L13.541 23.4204L17.0494 24.3656L16.7495 23.8843L13.2656 22.957Z" fill="#0C0B0B"/>
  <path fill-rule="evenodd" clip-rule="evenodd" d="M20.5742 24.9855L20.9004 25.5647L24.8964 26.721L24.5176 26.0726L20.5742 24.9855Z" fill="#0C0B0B"/>
  <path fill-rule="evenodd" clip-rule="evenodd" d="M24.5156 26.0725L27.4246 24.9009L27.8516 25.5249L24.8945 26.7209L24.5156 26.0725Z" fill="#2F2724"/>
  <path fill-rule="evenodd" clip-rule="evenodd" d="M28.4018 22.8179L28.835 23.5392L27.8528 25.5248L27.4258 24.9009L28.4018 22.8179Z" fill="#2F2724"/>
  <path fill-rule="evenodd" clip-rule="evenodd" d="M28.8356 23.5392L34.7641 28.3875L35.6797 28.6309L28.8356 22.9386L28.4023 22.8179L28.8356 23.5392Z" fill="#0C0B0B"/>
  <path fill-rule="evenodd" clip-rule="evenodd" d="M34.7656 28.3875V30.9494L35.6813 31.2944V28.6308L34.7656 28.3875Z" fill="#2F2724"/>
  <path fill-rule="evenodd" clip-rule="evenodd" d="M34.7648 30.9495L33.5469 32.1446L34.5224 32.5354L35.6804 31.2944L34.7648 30.9495Z" fill="#2F2724"/>
  <path fill-rule="evenodd" clip-rule="evenodd" d="M33.5469 32.1447L34.1804 32.6913L35.0705 33.0619L34.5224 32.5355L33.5469 32.1447Z" fill="#0C0B0B"/>
  <path fill-rule="evenodd" clip-rule="evenodd" d="M14.1271 18.8492L13.0117 21.3512L13.8885 22.723L17.5469 19.8389L14.1271 18.8492Z" fill="white"/>
  <path fill-rule="evenodd" clip-rule="evenodd" d="M18.4283 20.1265L14.8555 22.9571L16.446 23.4063L19.1871 20.3628L18.4283 20.1265Z" fill="white"/>
  <path fill-rule="evenodd" clip-rule="evenodd" d="M21.8592 20.9977L21.1836 24.6594L22.339 24.9855L25.823 22.1447L21.8592 20.9977Z" fill="white"/>
  <path fill-rule="evenodd" clip-rule="evenodd" d="M26.7017 22.4323L23.1289 25.2629L24.3534 25.6087L26.8758 24.5347L27.6112 22.7155L26.7017 22.4323Z" fill="white"/>
  <path fill-rule="evenodd" clip-rule="evenodd" d="M31.4354 43.4142L24.8225 47.0097L24.4708 48.0773L23.1172 48.4506L25.9551 49.0413L34.41 44.2019L31.4354 43.4142Z" fill="#A29E9D"/>
  <path fill-rule="evenodd" clip-rule="evenodd" d="M13.9286 45.8297L11.5747 45.0852L11.5039 43.4142L12.7162 42.7255L13.3062 45.0588L13.9286 45.8297Z" fill="#A29E9D"/>
</svg>