<svg width="165" height="48" viewBox="0 0 165 48" fill="none" xmlns="http://www.w3.org/2000/svg">
<g clip-path="url(#clip0_1785_139979)">
<path fill-rule="evenodd" clip-rule="evenodd" d="M158.887 48H6.11336C2.74403 48 0 45.2948 0 42V6C0 2.69327 2.74403 0 6.11336 0H158.887C162.253 0 165 2.69327 165 6V42C165 45.2948 162.253 48 158.887 48Z" fill="black"/>
<path fill-rule="evenodd" clip-rule="evenodd" d="M158.934 1.2H6.06618C3.38597 1.2 1.21324 3.34903 1.21324 6V42C1.21324 44.651 3.38597 46.8 6.06618 46.8H158.934C161.614 46.8 163.787 44.651 163.787 42V6C163.787 3.34903 161.614 1.2 158.934 1.2ZM6.06618 0C2.71592 0 0 2.68629 0 6V42C0 45.3137 2.71592 48 6.06618 48H158.934C162.284 48 165 45.3137 165 42V6C165 2.68629 162.284 0 158.934 0H6.06618Z" fill="#A6A6A6"/>
<path d="M86.6383 15.8785C85.54 15.8785 84.6142 15.4984 83.882 14.7503C83.1559 14.0231 82.7505 13.0206 82.7686 11.9972C82.7686 10.9049 83.1438 9.98024 83.882 9.24708C84.6112 8.49895 85.537 8.1189 86.6352 8.1189C87.7214 8.1189 88.6472 8.49895 89.3915 9.24708C90.1297 10.0042 90.5048 10.9289 90.5048 11.9972C90.4927 13.0925 90.1176 14.0172 89.3915 14.7473C88.6623 15.5014 87.7365 15.8785 86.6383 15.8785ZM53.9597 15.8785C52.8857 15.8785 51.9538 15.5044 51.1914 14.7653C50.435 14.0291 50.0508 13.0984 50.0508 12.0002C50.0508 10.9019 50.435 9.97127 51.1914 9.23511C51.9387 8.49595 52.8706 8.12189 53.9597 8.12189C54.4922 8.12189 55.0096 8.22663 55.5058 8.4391C55.9929 8.64558 56.3892 8.92688 56.6827 9.27102L56.7553 9.3578L55.9354 10.1538L55.8507 10.0551C55.3878 9.51042 54.7675 9.24408 53.9476 9.24408C53.2155 9.24408 52.5771 9.50144 52.0506 10.0102C51.5212 10.5219 51.2519 11.1922 51.2519 12.0032C51.2519 12.8142 51.5212 13.4845 52.0506 13.9962C52.5771 14.5049 53.2155 14.7623 53.9476 14.7623C54.7282 14.7623 55.3848 14.5049 55.8961 13.9962C56.1986 13.697 56.3862 13.278 56.4528 12.7483H53.8236V11.6291H57.5813L57.5964 11.7309C57.6236 11.9194 57.6509 12.1139 57.6509 12.2935C57.6509 13.3259 57.3362 14.1608 56.7129 14.7773C56.005 15.5074 55.0792 15.8785 53.9597 15.8785ZM97.4091 15.7199H96.2503L92.7014 10.1029L92.7316 11.1144V15.7169H91.5729V8.28049H92.895L92.9313 8.33735L96.2684 13.6281L96.2382 12.6196V8.28049H97.4091V15.7199V15.7199ZM77.9308 15.7199H76.7569V9.3997H74.7208V8.28049H79.964V9.3997H77.9278V15.7199H77.9308ZM73.7647 15.7199H72.5938V8.28049H73.7647V15.7199ZM67.1842 15.7199H66.0134V9.3997H63.9772V8.28049H69.2204V9.3997H67.1842V15.7199ZM63.2359 15.7079H58.7461V8.28049H63.2359V9.3997H59.92V11.4406H62.9122V12.5478H59.92V14.5887H63.2359V15.7079ZM84.7413 13.9812C85.2647 14.4989 85.9 14.7593 86.6383 14.7593C87.3977 14.7593 88.0179 14.5049 88.5352 13.9812C89.0496 13.4725 89.3098 12.8052 89.3098 12.0002C89.3098 11.1952 89.0496 10.5249 88.5383 10.0191C88.0149 9.50144 87.3765 9.24109 86.6413 9.24109C85.8819 9.24109 85.2616 9.49546 84.7473 10.0191C84.233 10.5279 83.9728 11.1952 83.9728 12.0002C83.9728 12.8052 84.2299 13.4755 84.7413 13.9812Z" fill="white"/>
<path fill-rule="evenodd" clip-rule="evenodd" d="M82.6604 26.1068C79.8013 26.1068 77.4837 28.2524 77.4837 31.212C77.4837 34.1447 79.8164 36.3173 82.6604 36.3173C85.5195 36.3173 87.8371 34.1567 87.8371 31.212C87.8371 28.2524 85.5195 26.1068 82.6604 26.1068ZM82.6604 34.2943C81.0962 34.2943 79.7498 33.0135 79.7498 31.2001C79.7498 29.3597 81.0992 28.1058 82.6604 28.1058C84.2246 28.1058 85.571 29.3597 85.571 31.2001C85.574 33.0255 84.2246 34.2943 82.6604 34.2943ZM71.3661 26.1068C68.507 26.1068 66.1894 28.2524 66.1894 31.212C66.1894 34.1447 68.5221 36.3173 71.3661 36.3173C74.2252 36.3173 76.5428 34.1567 76.5428 31.212C76.5428 28.2524 74.2222 26.1068 71.3661 26.1068ZM71.3661 34.2943C69.8019 34.2943 68.4555 33.0135 68.4555 31.2001C68.4555 29.3597 69.8049 28.1058 71.3661 28.1058C72.9303 28.1058 74.2767 29.3597 74.2767 31.2001C74.2767 33.0255 72.9303 34.2943 71.3661 34.2943ZM57.9267 27.6659V29.8265H63.1699C63.0096 31.0385 62.6042 31.9332 61.9839 32.5467C61.2154 33.3068 60.0294 34.1327 57.9388 34.1327C54.7166 34.1327 52.1963 31.5592 52.1963 28.3721C52.1963 25.1851 54.7166 22.6115 57.9388 22.6115C59.6785 22.6115 60.9462 23.2908 61.8871 24.1587L63.4362 22.6265C62.1292 21.3876 60.3895 20.439 57.9509 20.439C53.5306 20.439 49.8213 24.0001 49.8213 28.3602C49.8213 32.7322 53.5276 36.2814 57.9509 36.2814C60.338 36.2814 62.1292 35.5093 63.5451 34.0549C64.9883 32.6275 65.4451 30.6135 65.4451 28.9886C65.4451 28.4829 65.4058 28.028 65.3241 27.642H57.9237C57.9267 27.639 57.9267 27.6659 57.9267 27.6659ZM112.898 29.3477C112.465 28.2016 111.158 26.0948 108.477 26.0948C105.821 26.0948 103.612 28.1627 103.612 31.2001C103.612 34.0669 105.797 36.3053 108.734 36.3053C111.094 36.3053 112.468 34.8779 113.034 34.04L111.282 32.8789C110.701 33.7317 109.893 34.2913 108.747 34.2913C107.588 34.2913 106.777 33.7706 106.238 32.7442L113.14 29.9163C113.14 29.9193 112.898 29.3477 112.898 29.3477ZM105.86 31.0534C105.806 29.0814 107.409 28.0789 108.556 28.0789C109.461 28.0789 110.214 28.5188 110.471 29.1592L105.86 31.0534ZM100.254 36.0001H102.52V21.0016H100.254V36.0001ZM96.5325 27.241H96.4508C95.9395 26.6395 94.9683 26.0948 93.7278 26.0948C91.1531 26.0948 88.7811 28.3362 88.7811 31.215C88.7811 34.0819 91.141 36.2963 93.7278 36.2963C94.9531 36.2963 95.9395 35.7487 96.4508 35.1352H96.5325V35.8684C96.5325 37.8165 95.4796 38.8669 93.7823 38.8669C92.3935 38.8669 91.5313 37.8794 91.1803 37.0534L89.2107 37.8674C89.7765 39.214 91.2862 40.8809 93.7792 40.8809C96.4357 40.8809 98.6866 39.3337 98.6866 35.5602V26.4001H96.5446V27.241C96.5476 27.241 96.5325 27.241 96.5325 27.241ZM93.9305 34.2943C92.3663 34.2943 91.0593 33.0016 91.0593 31.215C91.0593 29.4135 92.3663 28.1088 93.9305 28.1088C95.4796 28.1088 96.6807 29.4285 96.6807 31.215C96.6958 33.0016 95.4826 34.2943 93.9305 34.2943ZM123.508 21.0016H118.089V36.0001H120.356V30.3203H123.511C126.019 30.3203 128.485 28.5218 128.485 25.6669C128.485 22.812 126.028 21.0016 123.508 21.0016ZM123.575 28.2255H120.352V23.0784H123.575C125.272 23.0784 126.231 24.4639 126.231 25.6519C126.231 26.828 125.26 28.2255 123.575 28.2255ZM137.568 26.0799C135.922 26.0799 134.225 26.8011 133.523 28.3721L135.532 29.1981C135.964 28.3721 136.757 28.0908 137.595 28.0908C138.769 28.0908 139.955 28.7851 139.982 30.024V30.1826C139.577 29.9552 138.687 29.608 137.622 29.608C135.453 29.608 133.253 30.7811 133.253 32.9806C133.253 34.9946 135.032 36.2873 137.014 36.2873C138.536 36.2873 139.374 35.608 139.897 34.821H139.979V35.9821H142.164V30.2365C142.164 27.5612 140.155 26.0799 137.568 26.0799ZM137.283 34.2943C136.542 34.2943 135.504 33.9352 135.504 33.0135C135.504 31.8524 136.799 31.4125 137.904 31.4125C138.902 31.4125 139.374 31.625 139.967 31.9183C139.804 33.2649 138.654 34.2824 137.283 34.2943ZM150.133 26.4001L147.531 32.9058H147.449L144.753 26.4001H142.315L146.36 35.4943L144.054 40.5487H146.414L152.638 26.4001H150.133ZM129.735 36.0001H132.001V21.0016H129.735V36.0001Z" fill="white"/>
<path fill-rule="evenodd" clip-rule="evenodd" d="M12.6591 9.04027C12.3082 9.41434 12.1055 9.98591 12.1055 10.734V37.2687C12.1055 38.0168 12.3082 38.5884 12.6712 38.9475L12.765 39.0283L27.7959 24.1615V23.8293L12.7529 8.95947L12.6591 9.04027Z" fill="#4285F4"/>
<path fill-rule="evenodd" clip-rule="evenodd" d="M32.7965 29.1323L27.7832 24.1737V23.8265L32.7965 18.8679L32.9054 18.9338L38.8354 22.2674C40.5327 23.2131 40.5327 24.7752 38.8354 25.7328L32.9054 29.0664L32.7965 29.1323Z" fill="#FBBC04"/>
<path fill-rule="evenodd" clip-rule="evenodd" d="M32.905 29.0663L27.7828 24L12.6582 38.9596C13.2119 39.5461 14.1407 39.612 15.1785 39.0404L32.905 29.0663Z" fill="#EA4335"/>
<path fill-rule="evenodd" clip-rule="evenodd" d="M32.905 18.9337L15.1785 8.97458C14.1407 8.38805 13.2088 8.46884 12.6582 9.05538L27.7828 24L32.905 18.9337Z" fill="#34A853"/>
<path opacity="0.2" fill-rule="evenodd" clip-rule="evenodd" d="M32.7977 28.9585L15.1921 38.8519C14.2088 39.4115 13.3314 39.3726 12.7657 38.8638L12.6719 38.9566L12.7657 39.0374C13.3314 39.5431 14.2088 39.585 15.1921 39.0254L32.9187 29.0662L32.7977 28.9585Z" fill="black"/>
<path opacity="0.12" fill-rule="evenodd" clip-rule="evenodd" d="M38.8353 25.5591L32.7812 28.9586L32.8902 29.0663L38.8202 25.7327C39.6704 25.2539 40.0879 24.6254 40.0879 24C40.0365 24.5746 39.6038 25.1192 38.8353 25.5591Z" fill="black"/>
<path opacity="0.25" fill-rule="evenodd" clip-rule="evenodd" d="M15.1794 9.14825L38.8361 22.441C39.6046 22.869 40.0372 23.4286 40.1038 24.0002C40.1038 23.3747 39.6862 22.7463 38.8361 22.2675L15.1794 8.97468C13.4821 8.01408 12.1055 8.81608 12.1055 10.7343V10.9079C12.1055 8.98665 13.4821 8.19962 15.1794 9.14825Z" fill="white"/>
</g>
<defs>
<clipPath id="clip0_1785_139979">
<rect width="165" height="48" fill="white"/>
</clipPath>
</defs>
</svg>
