<svg xmlns="http://www.w3.org/2000/svg" width="58" height="58" viewBox="0 0 58 58" fill="none">
  <path fill-rule="evenodd" clip-rule="evenodd" d="M25.914 5.17859L40.6844 9.19664L37.5985 10.9807L22.8281 6.9626L25.914 5.17859Z" fill="#0090BC"/>
  <path fill-rule="evenodd" clip-rule="evenodd" d="M40.6674 9.21265L51.1142 23.4526L48.0284 25.2366L37.5977 10.9806L40.6674 9.21265Z" fill="#54B663"/>
  <path fill-rule="evenodd" clip-rule="evenodd" d="M42.8059 18.1006C41.0702 15.7379 39.3344 13.3593 37.5986 10.9806C35.1396 10.3216 32.6805 9.63052 30.2054 8.97157C27.7463 8.3126 25.2873 7.63756 22.8283 6.96252C21.0924 8.39294 19.3406 9.82336 17.6048 11.2538C15.869 12.6842 14.1171 14.1146 12.3813 15.529C12.3652 18.2291 12.3652 20.9132 12.3652 23.5973V31.6655C14.101 34.028 15.8368 36.4067 17.5887 38.7855C19.3245 41.1641 21.0763 43.5268 22.8122 45.9056C25.2712 46.5644 27.7302 47.2556 30.1893 47.9145C32.6483 48.5893 35.1074 49.2486 37.5664 49.9234C39.3022 48.4932 41.0541 47.0786 42.7899 45.6481C44.5256 44.2179 46.2615 42.7874 48.0133 41.357V33.2887C48.0133 30.5886 48.0292 27.9046 48.0292 25.2205C46.2775 22.8579 44.5417 20.4793 42.8059 18.1006Z" fill="#FCEC29"/>
  <path fill-rule="evenodd" clip-rule="evenodd" d="M22.8281 6.96252L29.7546 29.1431L37.5984 10.9806L22.8281 6.96252Z" fill="#36C6FF"/>
  <path fill-rule="evenodd" clip-rule="evenodd" d="M37.5977 10.9807L48.0284 25.2207L29.7539 29.1432L37.5977 10.9807Z" fill="#83C77D"/>
  <path fill-rule="evenodd" clip-rule="evenodd" d="M29.7539 29.1431L48.0124 41.3571L48.0284 25.2206L29.7539 29.1431Z" fill="#B966BB"/>
  <path fill-rule="evenodd" clip-rule="evenodd" d="M29.7539 29.1432L37.5655 49.9235L48.0124 41.3571L29.7539 29.1432Z" fill="#FF6E6E"/>
  <path fill-rule="evenodd" clip-rule="evenodd" d="M29.7626 29.1472L12.373 31.6696L22.82 45.9097L29.7626 29.1472Z" fill="#36C6FF"/>
  <path fill-rule="evenodd" clip-rule="evenodd" d="M29.7548 29.1431L12.3813 15.5291L12.3652 31.6655L29.7548 29.1431Z" fill="#B966BB"/>
  <path fill-rule="evenodd" clip-rule="evenodd" d="M51.1155 23.4528L51.0996 39.5892L48.0137 41.3571L48.0296 25.2367L51.1155 23.4528Z" fill="#AA4191"/>
  <path fill-rule="evenodd" clip-rule="evenodd" d="M51.0836 39.5891L40.6366 48.1394L37.5508 49.9234L48.0137 41.357L51.0836 39.5891Z" fill="#1D1D1B"/>
  <path fill-rule="evenodd" clip-rule="evenodd" d="M29.7629 29.1453L22.8203 45.9078L37.5745 49.9256L29.7629 29.1453Z" fill="#36C6FF"/>
  <path fill-rule="evenodd" clip-rule="evenodd" d="M6.88477 45.937L32.5534 52.8215V49.3721L6.88477 42.4875V45.937Z" fill="#1B1E27"/>
  <path fill-rule="evenodd" clip-rule="evenodd" d="M16.0601 42.3715L14.002 43.5598L21.8432 45.6614L23.9158 44.473L16.0601 42.3715Z" fill="#F0753C"/>
  <path fill-rule="evenodd" clip-rule="evenodd" d="M32.5534 49.372L6.88477 42.4872L11.9721 39.545L37.5827 46.4008L32.5534 49.372Z" fill="#4A4F5D"/>
  <path fill-rule="evenodd" clip-rule="evenodd" d="M35.8136 24.6888L35.7701 37.7623L34.3787 39.5306L34.3642 39.6517L25.8418 44.5651L25.8563 30.4429L26.4651 29.4283L35.8136 24.6888Z" fill="#45424F"/>
  <path fill-rule="evenodd" clip-rule="evenodd" d="M26.4506 42.5453L25.8418 44.4585L34.3787 39.5306L35.9151 37.574L26.4506 42.5453Z" fill="#DB9F85"/>
  <path fill-rule="evenodd" clip-rule="evenodd" d="M26.4661 29.4283L24.0456 25.457L12.8708 22.4568L10.507 25.678L10.4799 31.6961L10.9351 33.1171L10.4648 35.052L11.5229 40.7046L14.3492 47.5892L20.8931 48.9055L25.8428 44.4585L26.4516 38.8929L26.4661 29.4283Z" fill="#F1AB92"/>
  <path fill-rule="evenodd" clip-rule="evenodd" d="M24.0456 25.457L12.8853 22.4568L10.507 25.678L10.4799 31.6961L10.9351 33.1171L10.4648 35.052L11.5229 40.7046L11.7352 41.2216L13.2042 41.6902L18.4365 35.0665L19.9583 37.6899L23.7412 36.4434L21.9585 33.704L18.6394 32.7185L16.9146 31.443L13.4796 29.4573L17.8277 25.7034L24.0456 25.457Z" fill="#E0997F"/>
  <path fill-rule="evenodd" clip-rule="evenodd" d="M17.2482 33.3273L17.6685 35.0231L17.683 39.8205L18.2048 39.9655L18.2192 41.9368L16.7264 42.7919L14.2292 41.8625L13.4942 42.1347L12.7695 41.7337L13.987 39.1103L14.6103 37.2986L17.2482 33.3273Z" fill="#CB8470"/>
  <path fill-rule="evenodd" clip-rule="evenodd" d="M16.5092 33.3707L13.2771 32.5011L12.248 33.3127V34.0954L16.5092 35.2404L16.5092 33.3707Z" fill="white"/>
  <path fill-rule="evenodd" clip-rule="evenodd" d="M15.5224 33.1098L13.2759 32.5011L12.957 32.762V34.2839L15.5224 34.9795V33.1098Z" fill="#090A05"/>
  <path fill-rule="evenodd" clip-rule="evenodd" d="M14.0455 32.704L13.2773 32.5011V33.5302L14.0455 33.7331V32.704Z" fill="white"/>
  <path fill-rule="evenodd" clip-rule="evenodd" d="M23.7416 36.4435L22.3213 34.9216L19.4805 34.1534V36.0376L23.7416 37.1827V36.4435Z" fill="white"/>
  <path fill-rule="evenodd" clip-rule="evenodd" d="M22.7549 35.3854L22.3201 34.9216L20.1895 34.3418V36.226L22.7549 36.9072V35.3854Z" fill="#090A05"/>
  <path fill-rule="evenodd" clip-rule="evenodd" d="M21.2779 34.6461L20.5098 34.4287V35.4578L21.2779 35.6752V34.6461Z" fill="white"/>
  <path fill-rule="evenodd" clip-rule="evenodd" d="M11.5229 40.7335L14.3492 47.5891L15.8131 49.3863L19.1467 50.2849L24.5493 47.2993L25.8428 44.4584L26.4516 38.8929L22.3498 44.4149L22.1614 46.9369L19.1032 47.4731L16.4218 46.792L13.7115 44.7047L13.494 42.0379L10.4648 35.0519L11.5229 40.7335Z" fill="#9C6D5B"/>
  <path fill-rule="evenodd" clip-rule="evenodd" d="M11.5229 40.7335L13.0111 44.3296L13.6245 43.6901L13.494 42.0379L10.4648 35.0519L11.5229 40.7335Z" fill="#7F5649"/>
  <path fill-rule="evenodd" clip-rule="evenodd" d="M22.3499 45.676V43.9368L20.5092 41.6769L18.2492 41.0162L15.4364 39.5741L13.4941 41.5598V43.2989L14.2292 41.9438L17.455 43.2434L21.3104 43.5888L22.3499 45.676Z" fill="#9C6D5B"/>
  <path fill-rule="evenodd" clip-rule="evenodd" d="M21.3097 43.5889L17.4543 43.2434L14.2285 41.9438L14.4365 42.4875L16.3645 43.4535L18.9734 44.1492L21.1932 43.8949L21.3097 43.5889Z" fill="#CB8470"/>
  <path fill-rule="evenodd" clip-rule="evenodd" d="M17.8274 36.7043V34.5012L18.8564 33.8925L18.8709 40.3712L16.8418 41.3713V39.4146L17.8274 36.7043Z" fill="#CB8470"/>
  <path fill-rule="evenodd" clip-rule="evenodd" d="M14.8708 38.8929L14.291 40.6902L17.3782 41.5163L16.8419 39.4147L14.8708 38.8929Z" fill="#F1AB92"/>
  <path fill-rule="evenodd" clip-rule="evenodd" d="M16.8278 33.3563L18.8569 33.8926L16.8423 39.4147L14.8711 38.893L16.8278 33.3563Z" fill="#FABFAA"/>
  <path fill-rule="evenodd" clip-rule="evenodd" d="M24.5 47.2994L25.8425 44.4584L34.3795 39.5305L33.0224 42.3861L24.5 47.2994Z" fill="#E3B7A4"/>
  <path fill-rule="evenodd" clip-rule="evenodd" d="M28.7702 41.6757V34.6172L26.4512 36.1391V42.5452L28.7702 41.6757Z" fill="#2A2830"/>
  <path fill-rule="evenodd" clip-rule="evenodd" d="M37.5821 49.9225L32.5527 52.8214V49.3717L37.5821 46.4008V49.9225Z" fill="#292C38"/>
  <path fill-rule="evenodd" clip-rule="evenodd" d="M19.4217 40.3423L18.8709 38.2262L16.8418 39.4147L17.3781 41.5163L19.4217 40.3423Z" fill="#FABFAA"/>
  <path fill-rule="evenodd" clip-rule="evenodd" d="M20.8282 17.8623L12.8711 22.4568L24.0459 25.4571L32.003 20.8625L20.8282 17.8623Z" fill="#53505C"/>
  <path fill-rule="evenodd" clip-rule="evenodd" d="M32.002 20.8624L24.0449 25.457L26.4654 29.4283L35.8139 24.6888L32.002 20.8624Z" fill="#919296"/>
  <path fill-rule="evenodd" clip-rule="evenodd" d="M33.3351 35.8347L28.7695 34.6172V41.6757L30.8277 42.212L33.3351 40.7626V35.8347Z" fill="#F1AB92"/>
  <path fill-rule="evenodd" clip-rule="evenodd" d="M32.0032 37.3276L30.0176 36.8203V40.0379L30.9162 40.2843L32.0032 39.6466V37.3276Z" fill="#CB8470"/>
  <path fill-rule="evenodd" clip-rule="evenodd" d="M34.8859 34.9361L33.3351 35.8347L28.7695 34.6172L30.3493 33.7041L34.8859 34.9361Z" fill="#FABFAA"/>
  <path fill-rule="evenodd" clip-rule="evenodd" d="M34.8868 39.8639L33.3359 40.7626V35.8346L34.8868 34.936V39.8639Z" fill="#FABFAA"/>
  <path fill-rule="evenodd" clip-rule="evenodd" d="M16.4219 45.7644L19.1032 46.4458V44.7063L16.4219 43.9818V45.7644Z" fill="#BD856E"/>
  <path fill-rule="evenodd" clip-rule="evenodd" d="M24.0031 34.0518L18.8867 32.6749V33.7475L23.9886 35.1099L24.0031 34.0518Z" fill="#030303"/>
  <path fill-rule="evenodd" clip-rule="evenodd" d="M16.9138 32.2112L12.4062 31.0082V32.0662L16.9138 33.2692V32.2112Z" fill="#030303"/>
  <path fill-rule="evenodd" clip-rule="evenodd" d="M14.7555 35.3999L12.248 34.6172L12.9293 36.0811L14.7555 35.3999Z" fill="#F1AB92"/>
  <path fill-rule="evenodd" clip-rule="evenodd" d="M26.7133 35.1188L9.05273 30.351V34.9242L10.9015 36.8703L15.1829 37.9893L16.4478 34.4377L17.7614 34.7783L18.7344 38.9623L23.5996 40.2759L26.1781 38.7677V36.1405L26.7133 36.2865L26.7133 35.1188Z" fill="#2F2724"/>
  <path fill-rule="evenodd" clip-rule="evenodd" d="M19.2696 38.5731L18.7344 36.4325L20.7291 34.6323L23.405 35.3621L19.6588 38.6704L19.2696 38.5731ZM24.524 35.7027L25.4483 35.9459V36.3838L22.14 39.3516L20.7778 39.011L24.524 35.7027Z" fill="#494949"/>
  <path fill-rule="evenodd" clip-rule="evenodd" d="M11.6316 32.151L14.3074 32.9294L10.9505 35.8972L9.68555 34.6809V33.8538L11.6316 32.151ZM15.3778 33.2213L15.5724 33.27L14.794 35.3134L13.0911 36.8216L11.7289 36.4324L15.3778 33.2213Z" fill="#494949"/>
  <path fill-rule="evenodd" clip-rule="evenodd" d="M13.6241 24.6889L22.7553 27.0315L26.7142 35.1189L28.7702 36.6515V34.6173L27.6107 33.7404L24.0453 25.4571L12.8704 22.4569L8.62305 27.565V30.258L9.89546 30.5783L9.87852 28.4959L13.6241 24.6889Z" fill="#5E1130"/>
  <path fill-rule="evenodd" clip-rule="evenodd" d="M10.4971 27.8674L10.4843 30.737L9.89585 30.5782L9.87891 28.4958L10.4971 27.8674Z" fill="#2F2724"/>
  <path fill-rule="evenodd" clip-rule="evenodd" d="M8.62305 27.5649L11.997 21.2321L17.7692 17.8623L12.8704 22.4568L8.62305 27.5649Z" fill="#541032"/>
  <path fill-rule="evenodd" clip-rule="evenodd" d="M30.3267 20.8636L24.0436 25.4557L22.8132 25.1262L21.8132 24.858H21.8103L20.9035 24.6131L19.8976 24.3419L18.8714 24.065H18.8684L17.8742 23.7996L16.982 23.5606L15.982 23.2923L15.1365 23.0649L14.1277 22.7938L12.8711 22.4556L17.7693 17.8635L18.9588 18.1492L19.8656 18.365L21.2155 18.6857L22.1193 18.9015L23.1223 19.1435L24.0232 19.3592L25.5276 19.7178L26.4314 19.9336L27.5977 20.2135H27.6006L28.5015 20.4292H28.5044L30.3267 20.8636Z" fill="#7F1C3F"/>
  <path fill-rule="evenodd" clip-rule="evenodd" d="M24.0449 25.457L30.3262 20.8624L34.379 27.3725L27.6104 33.7403L24.0449 25.457Z" fill="#6B1538"/>
  <path fill-rule="evenodd" clip-rule="evenodd" d="M27.6113 33.7403L34.38 27.3726L37.9792 34.7694L34.8872 39.864L31.2949 41.9438L31.382 36.6514L27.6113 33.7403Z" fill="#541032"/>
  <path fill-rule="evenodd" clip-rule="evenodd" d="M17.7695 17.8623L23.5812 18.0107L36.4371 21.5071L30.3269 20.8625L17.7695 17.8623Z" fill="#6B1538"/>
  <path fill-rule="evenodd" clip-rule="evenodd" d="M36.3921 21.4888L37.9782 34.7693L30.3262 20.8624L36.3921 21.4888Z" fill="#541032"/>
  <path fill-rule="evenodd" clip-rule="evenodd" d="M34.1113 27.6248L36.4369 21.5071L37.9787 34.7694L34.1113 27.6248Z" fill="#3A0A24"/>
  <path fill-rule="evenodd" clip-rule="evenodd" d="M19.8668 18.3649L15.1377 23.0648L14.1289 22.7937L18.96 18.1492L19.8668 18.3649Z" fill="#9B2958"/>
  <path fill-rule="evenodd" clip-rule="evenodd" d="M22.1197 18.9014L16.9825 23.5605L15.9824 23.2923L21.2159 18.6857L22.1197 18.9014Z" fill="#9B2958"/>
  <path fill-rule="evenodd" clip-rule="evenodd" d="M24.0239 19.3592L18.8721 24.0649H18.8692L17.875 23.7996L23.123 19.1434L24.0239 19.3592Z" fill="#9B2958"/>
  <path fill-rule="evenodd" clip-rule="evenodd" d="M26.4323 19.9335L20.9043 24.613L19.8984 24.3419L25.5284 19.7178L26.4323 19.9335Z" fill="#9B2958"/>
  <path fill-rule="evenodd" clip-rule="evenodd" d="M28.5028 20.4292L22.8145 25.1262L21.8145 24.858L27.599 20.2135H27.6019L28.5028 20.4292Z" fill="#9B2958"/>
  <path fill-rule="evenodd" clip-rule="evenodd" d="M18.9609 18.1492L24.6609 18.304L25.4289 18.5129L19.8677 18.3649L18.9609 18.1492Z" fill="#7F1C3F"/>
  <path fill-rule="evenodd" clip-rule="evenodd" d="M21.2168 18.6857L26.649 18.8449L27.6114 19.1067L22.1206 18.9014L21.2168 18.6857Z" fill="#7F1C3F"/>
  <path fill-rule="evenodd" clip-rule="evenodd" d="M23.123 19.1434L28.7704 19.422L29.7383 19.7178L24.0239 19.3592L23.123 19.1434Z" fill="#7F1C3F"/>
  <path fill-rule="evenodd" clip-rule="evenodd" d="M25.5273 19.7178L31.1601 20.0722L32.1723 20.3475L26.4312 19.9335L25.5273 19.7178Z" fill="#7F1C3F"/>
  <path fill-rule="evenodd" clip-rule="evenodd" d="M27.5977 20.2135L33.48 20.7032L34.6542 21.0225L28.5015 20.4292L27.5977 20.2135Z" fill="#7F1C3F"/>
  <path fill-rule="evenodd" clip-rule="evenodd" d="M24.5 26.5131L30.8284 21.7743L31.3212 22.6698L24.9527 27.5649L24.5 26.5131Z" fill="#7F1C3F"/>
  <path fill-rule="evenodd" clip-rule="evenodd" d="M25.4746 28.613L31.9297 23.775L32.4225 24.6705L25.9273 29.6647L25.4746 28.613Z" fill="#7F1C3F"/>
  <path fill-rule="evenodd" clip-rule="evenodd" d="M26.4277 30.9885L33.0383 25.7886L33.531 26.6841L26.8804 32.0403L26.4277 30.9885Z" fill="#7F1C3F"/>
  <path fill-rule="evenodd" clip-rule="evenodd" d="M30.8281 21.7743L36.4366 21.5071L31.3209 22.6698L30.8281 21.7743Z" fill="#6B1538"/>
  <path fill-rule="evenodd" clip-rule="evenodd" d="M31.9297 23.775L36.4373 21.5071L32.4224 24.6705L31.9297 23.775Z" fill="#6B1538"/>
  <path fill-rule="evenodd" clip-rule="evenodd" d="M33.0371 25.7885L36.4368 21.5071L33.5298 26.684L33.0371 25.7885Z" fill="#6B1538"/>
</svg>