<svg width="29" height="30" viewBox="0 0 29 30" fill="none" xmlns="http://www.w3.org/2000/svg">
<g clip-path="url(#clip0_2240_7344)">
<rect y="0.5" width="29" height="29" rx="14.5" fill="black"/>
<path fill-rule="evenodd" clip-rule="evenodd" d="M17.0352 14.0743C17.4878 13.0658 18.1597 12.2953 18.6123 11.2868C19.6034 10.4972 20.3992 10.1928 21.9287 9.74565C23.868 9.1796 24.6161 6.74891 25.4357 7.21983C26.1933 7.65269 26.7746 8.99885 25.9026 10.1928C24.4255 12.2144 20.1085 14.3406 17.0352 14.0743Z" fill="#585252"/>
<path fill-rule="evenodd" clip-rule="evenodd" d="M18.6123 11.2868C19.6034 10.4972 20.3992 10.1928 21.9287 9.74565C23.868 9.1796 24.6161 6.74891 25.4357 7.21983C26.1933 7.65269 26.7746 8.99885 25.9026 10.1928C24.4255 12.2191 20.1133 14.3406 17.0352 14.0743C19.227 12.6948 24.435 12.3761 25.7263 9.61246C26.1742 8.65636 26.0122 8.05226 25.4881 7.74783C25.0545 7.49096 24.7066 8.40901 23.8156 9.41268C22.7054 10.6637 18.2026 13.2656 17.9977 12.8898C17.707 12.7614 18.9078 11.42 18.6123 11.2868Z" fill="#E6D2BD"/>
<path fill-rule="evenodd" clip-rule="evenodd" d="M25.7272 7.43848C26.3228 8.00929 26.6992 9.18896 25.9035 10.1926C24.7885 11.5816 22.0201 13.4557 20.1094 12.8754C22.3632 12.1809 24.8838 11.4199 25.7272 9.6123C26.1751 8.6562 26.0131 8.0521 25.4889 7.74767C25.0553 7.49081 24.7075 8.40885 23.8165 9.41252C23.3352 9.95479 22.2155 10.7539 21.0862 11.4532C24.2358 9.39349 24.779 6.9533 25.5461 7.32432C25.6033 7.35286 25.6652 7.39091 25.7272 7.43848Z" fill="#FFFFFD"/>
<path fill-rule="evenodd" clip-rule="evenodd" d="M12.4065 13.2476C11.8538 12.2868 11.1152 11.5828 10.5673 10.6267C9.50469 9.93694 8.68513 9.71337 7.11748 9.41845C5.13052 9.04267 4.14895 6.69285 3.37704 7.23987C2.66707 7.74408 2.21917 9.1378 3.2055 10.2461C4.87321 12.1203 9.37127 13.8137 12.4065 13.2476Z" fill="#585252"/>
<path fill-rule="evenodd" clip-rule="evenodd" d="M10.5673 10.6267C9.50469 9.93694 8.68513 9.71337 7.11748 9.41845C5.13052 9.04267 4.14895 6.69285 3.37704 7.23987C2.66707 7.74408 2.21917 9.1378 3.2055 10.2461C4.87321 12.1203 9.37127 13.8137 12.4065 13.2476C10.0908 12.087 4.87321 12.2772 3.32462 9.65153C2.78619 8.743 2.88625 8.12938 3.3818 7.77262C3.79158 7.47771 4.22042 8.35295 5.20676 9.26624C6.43133 10.4031 11.1676 12.5579 11.3344 12.1631C11.6108 12.0061 10.2861 10.7884 10.5673 10.6267Z" fill="#E6D2BD"/>
<path fill-rule="evenodd" clip-rule="evenodd" d="M3.11015 7.48765C2.57648 8.11554 2.31917 9.3285 3.21497 10.2466C4.45861 11.5214 7.40331 13.1053 9.24733 12.3348C6.93159 11.8734 4.34902 11.3644 3.32933 9.65672C2.78613 8.74818 2.8862 8.13457 3.37698 7.77781C3.78676 7.48289 4.22037 8.35813 5.2067 9.26667C5.74037 9.75661 6.93635 10.4416 8.13234 11.0219C4.78739 9.28569 4.00595 6.91209 3.27692 7.35922C3.2245 7.39252 3.16732 7.43533 3.11015 7.48765Z" fill="#FFFFFD"/>
<path fill-rule="evenodd" clip-rule="evenodd" d="M20.0183 20.5728C16.2588 20.0115 13.0568 20.8012 9.29255 20.2446C8.98284 21.3815 8.3777 22.1473 7.55813 22.7276C7.90121 22.8037 8.72553 22.8275 9.0019 22.5707C8.70647 23.132 8.41105 23.717 7.9298 24.1071C8.30622 24.1737 8.66835 23.9929 8.89707 23.7598C8.59212 24.7302 7.71538 26.4712 7.10547 28.5023C7.26271 28.3025 7.63914 27.9505 7.82497 27.8649C7.60578 28.9161 7.42472 32.4701 7.26271 33.3929H21.6527C21.3906 31.9802 21.0809 27.6176 21.0714 27.0087C21.2477 27.0896 21.6432 27.2132 21.7861 27.2227C20.5854 25.2106 20.7664 25.1821 20.3138 24.2213C20.7426 24.2308 20.9999 24.4068 21.2429 24.5067C21.1857 24.0453 20.9713 23.8312 20.4805 23.3746C21.038 23.3365 21.5622 23.2223 21.6575 22.7467C20.7474 22.8513 20.004 21.8952 20.0183 20.5728Z" fill="#FFFFFD"/>
<path fill-rule="evenodd" clip-rule="evenodd" d="M9.21025 21.6477C8.75759 22.4896 9.82016 24.7633 10.5349 26.5994C10.635 26.3378 10.7207 26.1 10.878 25.8716C10.8732 28.4688 13.4224 28.8826 13.4129 29.872C13.6273 29.6199 13.7988 28.8113 13.756 28.4736C14.0037 29.0777 13.8465 29.7579 14.2182 30.381C14.3135 29.696 14.7947 29.3155 15.2426 28.9064C15.1759 29.0777 14.9519 29.3868 14.9805 29.6723C15.8859 28.64 16.9723 28.6781 17.2915 27.3224C17.4869 27.4889 17.4249 28.2738 17.382 28.4973C18.173 27.8076 18.5494 27.0751 18.64 25.8383C18.8306 26.1 18.983 26.5899 19.0974 26.9229C19.4595 26.138 20.0933 23.2554 19.3595 22.1899C18.7925 20.4299 9.20549 21.6524 9.21025 21.6477Z" fill="#E6D2BD"/>
<path fill-rule="evenodd" clip-rule="evenodd" d="M9.92383 23.8122C13.1735 23.2747 16.4231 22.7372 19.6728 22.1997C19.0534 26.8042 17.2332 24.9919 16.9425 27.2847C16.7138 27.1087 16.5613 26.7519 16.4899 26.281C16.1801 27.3417 14.9174 27.4559 14.9127 28.4072C14.6411 28.1028 14.4791 27.4654 14.5791 26.8803C14.2265 27.2989 14.2837 27.6747 14.3647 28.2455C13.6881 27.9363 13.1354 26.7091 12.9781 26.1383C12.8542 26.5426 12.3539 27.3179 11.9632 27.4369C12.1681 26.1383 10.9102 24.9872 9.92383 23.8122Z" fill="#D8BEA3"/>
<path fill-rule="evenodd" clip-rule="evenodd" d="M14.2751 11.5161C12.6217 11.5351 9.00517 12.6767 9.26247 13.6946C9.75326 15.6164 9.7199 17.3002 7.55664 18.2373C7.81394 18.4323 8.36191 18.4609 8.75739 18.399C8.18561 18.8557 8.07601 19.1839 7.96642 19.8594C8.12366 19.6073 8.30949 19.3647 8.65257 19.1982C8.09507 19.8166 7.91401 20.7013 8.39526 21.5718C8.38573 21.2245 8.46674 20.9534 8.59539 20.7156C8.55727 24.7445 13.2221 25.4771 13.2507 26.4712C13.4985 26.1953 13.6509 25.4057 13.5842 25.0727C13.9082 25.6531 13.7939 26.3808 14.5182 27.0277C14.4848 26.3523 15.2853 25.7529 15.819 25.2963C15.7427 25.4723 15.6236 25.948 15.6713 26.2286C16.6195 24.9871 18.6922 24.8206 19.0162 23.484C19.0686 24.2023 18.9019 24.3925 18.8542 24.6256C19.9072 23.874 20.6649 21.0343 20.2884 19.7737C20.5743 19.9164 20.722 20.0734 21.0508 20.4682C20.9555 19.7547 20.7697 19.1839 20.2408 18.6797C20.6982 18.7558 21.2128 18.4704 21.4654 18.1755C20.8459 18.0328 20.1979 17.9472 19.8596 17.4429C19.5499 16.6438 19.8739 15.2263 20.1312 14.9647C18.4444 12.4484 17.4009 11.3543 14.2751 11.5161Z" fill="white"/>
<path fill-rule="evenodd" clip-rule="evenodd" d="M14.2776 11.5161C12.629 11.5351 9.00767 12.6767 9.26498 13.6946C9.35551 14.0514 11.0518 14.8553 11.0995 15.1883C11.2091 16.0254 10.5038 16.4155 10.1084 17.0624C9.45557 17.8187 10.2608 18.5988 10.2894 19.2838C10.3371 20.5396 10.7135 20.6062 11.4425 21.1675C11.9381 22.5469 13.2818 22.4518 13.2198 24.1261C13.4962 23.9121 13.6391 23.4935 13.6725 23.113C14.0489 23.7551 13.9822 24.6256 14.4825 25.5104C14.5254 24.6351 14.9114 24.1452 15.2211 23.4459C15.2259 23.8883 15.121 24.3402 15.2497 24.6018C15.6642 23.6029 17.2081 22.937 17.594 21.4766C19.0902 20.2589 18.8901 20.0354 18.7519 19.065C19.1188 18.8176 19.3237 17.2146 19.0902 16.8721C18.7805 16.073 19.1378 14.7078 20.1432 14.9647C18.4469 12.4484 17.4034 11.3543 14.2776 11.5161Z" fill="#E6D2BD"/>
<path fill-rule="evenodd" clip-rule="evenodd" d="M15.9237 15.3211C15.4186 15.1213 14.9564 15.8586 14.4228 15.8253C14.0511 15.8016 13.6413 15.1404 13.2411 15.2736C12.6645 15.4638 12.3262 16.1345 11.9832 16.7339C11.5353 17.1192 11.0159 17.4759 10.8968 17.885C10.749 18.3987 11.054 19.4357 11.2065 19.7164C13.4126 19.8923 15.6378 19.2597 17.844 19.4357C18.0441 18.7507 18.268 17.8374 17.4961 17.2429C16.8148 16.7244 16.6337 15.6065 15.9237 15.3211Z" fill="#FFFFFD"/>
<path fill-rule="evenodd" clip-rule="evenodd" d="M11.6282 16.2866C11.4042 16.0535 11.2899 15.3638 11.0373 15.0213C10.8801 14.8073 10.5942 14.6931 10.3083 14.8073C10.437 14.812 10.5323 14.9262 10.6085 14.9975C9.91758 14.9309 9.63645 14.8976 9.37915 15.5398C9.36009 15.6016 8.85501 15.6254 8.40234 15.8775C8.64059 16.0393 9.12661 16.0012 9.10755 16.1582C8.92172 16.6006 9.13137 17.5376 9.92235 17.6042C9.93188 17.6756 9.82705 17.8706 10.2225 18.4985C9.99858 17.4615 11.1422 17.6661 11.3756 16.3247C11.4614 16.2771 11.5519 16.3247 11.6282 16.2866Z" fill="#8B8381"/>
<path fill-rule="evenodd" clip-rule="evenodd" d="M13.3938 13.8186C14.3468 14.3609 14.3849 14.9079 14.3277 15.6262C14.4611 15.5263 14.5612 15.4073 14.6327 15.2694C14.6422 15.3883 14.6422 15.5072 14.6184 15.6262C14.9996 15.3883 14.9662 15.0982 15.133 14.7509C15.133 14.8508 15.4522 14.9602 15.4332 15.0553C15.9049 14.7271 15.538 13.8614 17.0532 13.186C16.2194 14.0231 16.1003 14.6177 16.2909 15.1124C17.463 14.2943 20.1028 13.7568 20.8556 16.1256C21.0558 15.4454 20.8985 14.8223 20.5745 14.3942C20.9033 14.4608 21.1606 14.6653 21.375 14.9887C21.5037 14.5511 21.2559 14.1991 20.9319 13.9851C21.3321 12.7293 20.7651 11.8303 20.0075 10.9979C18.4303 9.26641 15.9144 9.333 15.6905 7.15918C15.3712 7.37323 15.0949 7.89172 15.376 8.48155C13.9847 7.67291 12.5075 7.75853 11.283 8.6956C11.769 8.67182 12.1931 8.71463 12.5552 8.81928C10.6683 9.21884 7.78553 11.0977 6.65625 9.80868C6.7039 11.1263 7.17086 12.1252 8.0476 13.0004C7.5187 13.0765 6.90402 13.4666 6.80873 13.7996C7.14227 13.6569 7.69976 13.5427 8.03807 13.5094C7.14227 14.2182 7.38528 15.003 7.74741 15.9544C8.27631 13.6474 10.0965 13.0623 13.5034 15.0982C13.6464 14.789 13.5701 13.947 13.3938 13.8186Z" fill="white"/>
<path fill-rule="evenodd" clip-rule="evenodd" d="M13.0949 11.3688C14.2623 12.0823 14.9008 12.7863 14.815 14.689C16.2112 12.7292 16.0253 11.0929 15.1915 9.937C16.1349 10.4935 16.6495 11.911 16.7162 13.086C17.6501 11.9063 17.2356 9.48035 14.3528 9.19971C14.8103 9.74673 15.139 10.4793 15.3487 10.9835C13.7286 9.16641 11.9466 9.98932 10.4123 10.4698C10.9555 10.5078 11.7846 10.9502 12.1372 11.1405C11.1318 11.0739 10.1169 11.4116 8.9018 10.9549C9.10669 11.3307 9.50218 11.8064 10.1597 12.1441C9.31635 12.1156 8.17754 11.6161 7.41992 11.0358C8.80651 13.8756 11.4224 11.8587 13.1711 13.652C12.8805 12.615 11.4987 12.4105 10.9031 11.9206C11.7989 12.2821 13.376 12.6008 14.0098 13.4475C14.0193 12.6055 13.6333 11.8587 13.0949 11.3688Z" fill="#E6D2BD"/>
<path d="M21.9858 17.4521C21.8048 24.2876 25.2164 28.0501 21.2949 28.7589" stroke="#030303" stroke-width="0.156558"/>
<path d="M21.8985 17.7757C22.1143 17.7757 22.2893 17.6011 22.2893 17.3857C22.2893 17.1702 22.1143 16.9956 21.8985 16.9956C21.6827 16.9956 21.5078 17.1702 21.5078 17.3857C21.5078 17.6011 21.6827 17.7757 21.8985 17.7757Z" fill="#030303"/>
<path fill-rule="evenodd" clip-rule="evenodd" d="M19.0815 13.7041C19.8344 13.647 20.573 13.8849 21.1447 14.3748C21.7165 14.8648 22.0691 15.5545 22.1311 16.3061C22.1883 17.0576 21.95 17.7949 21.4592 18.3657C20.9684 18.9365 20.2775 19.2885 19.5247 19.3504C18.7718 19.4074 18.0333 19.1696 17.4615 18.6797C16.8897 18.1897 16.5371 17.5 16.4751 16.7484C16.418 15.9969 16.6562 15.2596 17.147 14.6888C17.6378 14.1132 18.3287 13.7612 19.0815 13.7041ZM19.1054 14.0276C18.4383 14.0799 17.8284 14.3891 17.3948 14.8981C16.9612 15.407 16.7467 16.0587 16.7991 16.7199C16.8516 17.3858 17.1613 17.9947 17.6711 18.4276C18.181 18.8604 18.8338 19.0745 19.4961 19.0221C20.1632 18.9698 20.7731 18.6606 21.2067 18.1517C21.6403 17.6427 21.8547 16.991 21.8023 16.3298C21.7499 15.6639 21.4402 15.055 20.9303 14.6222C20.4252 14.1846 19.7724 13.9753 19.1054 14.0276Z" fill="#030303"/>
<path fill-rule="evenodd" clip-rule="evenodd" d="M19.0954 13.9038C19.7958 13.8467 20.4819 14.0703 21.0108 14.5269C21.5445 14.9836 21.8733 15.621 21.9257 16.3202C21.9829 17.0194 21.7589 17.7044 21.3015 18.2324C20.8441 18.7651 20.2056 19.0934 19.5051 19.1457C18.8047 19.2028 18.1186 18.9792 17.5896 18.5226C17.056 18.0659 16.7272 17.4285 16.6748 16.7293C16.6176 16.03 16.8416 15.3451 17.299 14.8171C17.7564 14.2843 18.3949 13.9561 19.0954 13.9038ZM19.1192 14.2035C18.4997 14.251 17.9327 14.5412 17.5277 15.0121C17.1227 15.483 16.9273 16.0871 16.975 16.7055C17.0226 17.3239 17.3133 17.8899 17.785 18.2942C18.2567 18.6986 18.8619 18.8936 19.4813 18.846C20.1008 18.7984 20.6678 18.5083 21.0728 18.0374C21.4778 17.5665 21.6732 16.9624 21.6255 16.344C21.5779 15.7256 21.2872 15.1596 20.8155 14.7552C20.3438 14.3509 19.7386 14.1559 19.1192 14.2035Z" fill="#FEF34B"/>
<path fill-rule="evenodd" clip-rule="evenodd" d="M16.0764 16.22C15.519 15.9108 14.9329 16.1915 14.5612 16.1772C14.1753 16.163 13.5272 15.8823 13.0412 16.1106C12.5552 16.339 12.2645 17.0477 12.4075 17.5472C12.0072 17.9372 11.7833 18.3701 11.7309 19.0265C11.7118 19.2691 11.3116 19.1977 11.14 19.5735C10.9399 20.0016 11.6499 20.406 12.2216 20.8816C12.9316 21.4715 13.0936 21.7949 14.2038 21.9662C15.438 22.1564 16.6673 21.5666 17.2153 20.9958C17.7394 20.4535 18.0443 19.7686 17.8395 19.4356C17.5822 19.0122 17.1724 19.2596 17.12 19.0503C16.9532 18.3701 16.9103 18.0894 16.5815 17.6851C16.7006 17.1999 16.6101 16.5197 16.0764 16.22Z" fill="#585252"/>
<path fill-rule="evenodd" clip-rule="evenodd" d="M12.4084 17.5474C12.0081 17.9374 11.7842 17.8661 11.584 18.4559C11.565 18.6985 11.0313 18.4559 10.7549 18.7698C10.0354 19.5785 11.503 20.4442 12.0748 20.9199C12.7848 21.5097 13.1088 22.1947 14.219 22.3659C15.4531 22.5562 16.6682 21.5716 17.2161 21.0007C17.7403 20.4585 18.1119 19.5214 17.9118 19.1884C17.6545 18.7651 17.2447 19.0124 17.1923 18.8031C17.0255 18.1229 16.9112 18.0944 16.5824 17.6901C16.5634 17.7757 16.5681 18.2656 16.2918 18.5368C16.0154 18.8127 16.1107 19.3407 16.2012 19.4786C16.287 19.6118 16.7444 20.2777 16.0297 20.468C15.3197 20.6583 14.6431 20.2159 14.5907 19.7259L14.4191 19.6689C14.2333 20.1636 13.4948 20.0399 13.1946 19.8924C12.8944 19.7402 12.6609 19.4738 12.8658 19.2122C13.0707 18.9554 12.8039 18.5986 12.5894 18.318C12.3798 18.0421 12.2559 17.6996 12.4084 17.5474Z" fill="#8B8381"/>
<path fill-rule="evenodd" clip-rule="evenodd" d="M12.0527 20.3062C12.2004 20.4346 13.3678 21.072 13.5156 21.2385C13.668 21.405 14.2255 21.6618 15.0403 21.4715C15.8551 21.2813 16.3554 20.896 16.5079 20.8341C16.6556 20.7676 16.3936 20.8056 16.1696 20.8484C15.9457 20.8912 14.9546 20.8246 14.4781 20.5583C14.4352 20.5345 12.6912 20.6439 12.0527 20.3062Z" fill="#585252"/>
<path fill-rule="evenodd" clip-rule="evenodd" d="M16.0766 16.22C15.5191 15.9108 14.933 16.1915 14.5613 16.1772C14.1754 16.163 13.5273 15.8823 13.0413 16.1106C12.5553 16.339 12.2646 17.0477 12.4076 17.5472C12.7554 17.766 12.6744 16.0964 13.6989 16.4912C14.0086 16.6101 14.4422 17.0525 14.9568 16.6957C15.4952 16.3247 16.1861 16.2866 16.4244 17.0715C16.5149 17.3616 16.4482 17.7279 16.5912 17.6899C16.7008 17.1999 16.6102 16.5197 16.0766 16.22Z" fill="#8B8381"/>
<path fill-rule="evenodd" clip-rule="evenodd" d="M13.3905 18.2272C12.9235 17.956 12.5948 17.8847 12.4089 17.5517C12.6758 17.7515 12.8616 17.7848 13.0855 17.6897C13.2952 17.5993 13.0665 17.2045 13.238 17.057C13.4381 16.881 13.7336 17.2568 13.8336 17.5184C13.967 17.8561 14.1338 18.9597 14.4054 18.9359C14.5007 18.9216 14.5007 17.7372 14.5627 17.5232C14.6437 17.7277 14.5674 18.9359 14.6294 18.9359C14.8438 18.9264 15.0582 18.0417 15.1678 17.6944C15.2631 17.39 15.6252 16.9238 15.8873 17.0523C16.0874 17.3424 15.8158 17.6754 16.0112 17.7943C16.1255 17.8657 16.1112 17.9798 16.5925 17.6897C16.2447 18.1748 15.7729 18.0702 15.3536 18.4269C14.9581 18.6648 14.7104 19.1024 14.6437 19.4021C14.6008 19.7874 14.5722 19.8159 14.596 20.0442C14.8533 21.0717 17.3311 21.1002 17.4835 19.364C17.4311 19.2784 17.2548 19.2594 17.3358 19.2118C17.5455 19.0786 17.8504 19.3355 17.8457 19.4401C17.8457 19.5162 17.7504 19.4259 17.7123 19.4592C17.1929 21.476 15.1773 20.8909 14.3959 20.6769C13.0474 20.8576 11.6037 20.382 11.089 19.383C11.0509 19.4449 11.0462 19.716 10.9604 19.6256C10.7603 19.4068 11.0366 18.9026 11.5131 18.8503C11.7133 18.8265 11.3035 19.0929 11.3082 19.207C11.6418 20.2583 13.3714 20.9813 14.3101 20.0395C14.4292 19.8302 14.4626 19.7779 14.4054 19.4068C14.2768 18.9502 13.8575 18.4983 13.3905 18.2272Z" fill="#030303"/>
<path fill-rule="evenodd" clip-rule="evenodd" d="M11.4073 16.1916C11.5883 16.2487 11.6455 16.2439 11.6312 16.2867C11.5931 16.3628 11.5073 16.3961 11.4073 16.4056C11.312 16.6102 11.1261 16.6482 10.7592 16.7006C10.2256 16.7719 9.72527 16.7672 9.30596 16.9146C9.20589 16.7862 9.0963 16.3819 9.22019 16.1393C8.87235 16.1012 8.58169 16.0156 8.41016 15.8776C9.81103 15.1974 9.98734 16.1202 11.4073 16.1916Z" fill="#030303"/>
<path fill-rule="evenodd" clip-rule="evenodd" d="M9.64413 16.6817C9.51547 16.4344 9.51071 16.1585 9.62983 15.9111H9.50594C9.33441 16.1585 9.30582 16.4915 9.42018 16.7483L9.64413 16.6817Z" fill="white"/>
<path d="M9.83826 16.3659C9.84194 16.2662 9.77244 16.1826 9.68303 16.1794C9.59362 16.1761 9.51816 16.2543 9.51448 16.354C9.5108 16.4538 9.58029 16.5373 9.6697 16.5406C9.75912 16.5439 9.83458 16.4657 9.83826 16.3659Z" fill="#FFFFFD"/>
<path fill-rule="evenodd" clip-rule="evenodd" d="M11.8306 15.9063C11.9831 15.8777 12.0688 15.6589 12.0545 15.559C11.3446 15.5733 10.8109 14.3413 9.82933 14.0464C9.78644 14.2129 9.73879 14.3841 9.69591 14.5506C9.6435 14.4317 9.59108 14.308 9.54343 14.1891C9.41478 14.4412 9.20036 14.5125 9.00977 14.8693C9.05265 14.9454 9.1003 15.0215 9.14318 15.0976C9.30519 14.9977 9.66256 14.993 10.0533 15.0738C10.5727 15.1785 11.4065 16.0347 11.8306 15.9063Z" fill="#030303"/>
<path fill-rule="evenodd" clip-rule="evenodd" d="M17.4297 16.2866C17.6536 16.0535 17.768 15.3638 18.0205 15.0213C18.1778 14.8073 18.4637 14.6931 18.7496 14.8073C18.6209 14.812 18.5256 14.9262 18.4494 14.9975C19.1403 14.9309 19.4214 14.8976 19.6787 15.5398C19.6978 15.6016 20.2029 15.6254 20.6555 15.8775C20.4173 16.0393 19.9313 16.0012 19.9503 16.1582C20.1361 16.6006 19.9265 17.5376 19.1355 17.6042C19.126 17.6756 19.2308 17.8706 18.8353 18.4985C19.0593 17.4615 17.9157 17.6661 17.6822 16.3247C17.5965 16.2771 17.5059 16.3247 17.4297 16.2866Z" fill="#8B8381"/>
<path fill-rule="evenodd" clip-rule="evenodd" d="M17.6499 16.1916C17.4688 16.2487 17.4116 16.2439 17.4259 16.2867C17.464 16.3628 17.5498 16.3961 17.6499 16.4056C17.7452 16.6102 17.931 16.6482 18.2979 16.7006C18.8316 16.7719 19.3319 16.7672 19.7512 16.9146C19.8513 16.7862 19.9608 16.3819 19.837 16.1393C20.1848 16.1012 20.4755 16.0156 20.647 15.8776C19.2461 15.1974 19.0698 16.1202 17.6499 16.1916Z" fill="#030303"/>
<path fill-rule="evenodd" clip-rule="evenodd" d="M19.4062 16.6817C19.5349 16.4344 19.5397 16.1585 19.4205 15.9111H19.5444C19.716 16.1585 19.7446 16.4915 19.6302 16.7483L19.4062 16.6817Z" fill="white"/>
<path d="M19.3842 16.5389C19.4736 16.5356 19.5431 16.4521 19.5394 16.3523C19.5358 16.2526 19.4603 16.1744 19.3709 16.1776C19.2815 16.1809 19.212 16.2645 19.2156 16.3642C19.2193 16.464 19.2948 16.5422 19.3842 16.5389Z" fill="#FFFFFD"/>
<path fill-rule="evenodd" clip-rule="evenodd" d="M17.2255 15.9063C17.073 15.8777 16.9872 15.6589 17.0015 15.559C17.7115 15.5733 18.2452 14.3413 19.2268 14.0464C19.2696 14.2129 19.3173 14.3841 19.3602 14.5506C19.4126 14.4317 19.465 14.308 19.5126 14.1891C19.6413 14.4412 19.8557 14.5125 20.0463 14.8693C20.0034 14.9454 19.9558 15.0215 19.9129 15.0976C19.7509 14.9977 19.3935 14.993 19.0028 15.0738C18.4834 15.1785 17.6496 16.0347 17.2255 15.9063Z" fill="#030303"/>
</g>
<defs>
<clipPath id="clip0_2240_7344">
<rect y="0.5" width="29" height="29" rx="14.5" fill="white"/>
</clipPath>
</defs>
</svg>
