<svg width="160" height="48" viewBox="0 0 160 48" fill="none" xmlns="http://www.w3.org/2000/svg">
<rect x="0.63671" y="0.63671" width="158.727" height="45.8431" rx="7.00381" fill="black"/>
<rect x="0.63671" y="0.63671" width="158.727" height="45.8431" rx="7.00381" stroke="#A6A6A6" stroke-width="1.27342"/>
<path d="M48.5359 12.5639C48.5359 12.9479 48.5857 13.3284 48.6853 13.7053C48.7848 14.0751 48.9413 14.4093 49.1546 14.708C49.368 15.0067 49.6418 15.2485 49.976 15.4334C50.3102 15.6111 50.7085 15.7 51.1707 15.7C51.633 15.7 52.0312 15.6111 52.3655 15.4334C52.6997 15.2485 52.9735 15.0067 53.1868 14.708C53.4002 14.4093 53.5566 14.0751 53.6562 13.7053C53.7558 13.3284 53.8055 12.9479 53.8055 12.5639C53.8055 12.1798 53.7558 11.8029 53.6562 11.4331C53.5566 11.0562 53.4002 10.7184 53.1868 10.4197C52.9735 10.1211 52.6997 9.88283 52.3655 9.70504C52.0312 9.52014 51.633 9.42769 51.1707 9.42769C50.7085 9.42769 50.3102 9.52014 49.976 9.70504C49.6418 9.88283 49.368 10.1211 49.1546 10.4197C48.9413 10.7184 48.7848 11.0562 48.6853 11.4331C48.5857 11.8029 48.5359 12.1798 48.5359 12.5639ZM47.5225 12.5639C47.5225 12.0447 47.5972 11.5469 47.7466 11.0705C47.903 10.5869 48.1341 10.1602 48.4399 9.79038C48.7457 9.42058 49.1262 9.12546 49.5813 8.905C50.0365 8.68454 50.5663 8.57432 51.1707 8.57432C51.7752 8.57432 52.305 8.68454 52.7602 8.905C53.2153 9.12546 53.5958 9.42058 53.9016 9.79038C54.2073 10.1602 54.4349 10.5869 54.5843 11.0705C54.7407 11.5469 54.8189 12.0447 54.8189 12.5639C54.8189 13.083 54.7407 13.5844 54.5843 14.0679C54.4349 14.5444 54.2073 14.9675 53.9016 15.3373C53.5958 15.7071 53.2153 16.0023 52.7602 16.2227C52.305 16.4361 51.7752 16.5427 51.1707 16.5427C50.5663 16.5427 50.0365 16.4361 49.5813 16.2227C49.1262 16.0023 48.7457 15.7071 48.4399 15.3373C48.1341 14.9675 47.903 14.5444 47.7466 14.0679C47.5972 13.5844 47.5225 13.083 47.5225 12.5639ZM56.1498 10.8571H57.0566V11.6038H57.0779C57.2272 11.298 57.4619 11.0776 57.7819 10.9424C58.1019 10.8002 58.454 10.7291 58.838 10.7291C59.2647 10.7291 59.6345 10.8073 59.9474 10.9638C60.2674 11.1202 60.5305 11.3336 60.7368 11.6038C60.9501 11.8669 61.1101 12.1727 61.2168 12.5212C61.3235 12.8697 61.3768 13.2395 61.3768 13.6306C61.3768 14.0217 61.3235 14.3915 61.2168 14.74C61.1172 15.0884 60.9608 15.3942 60.7474 15.6574C60.5412 15.9134 60.2781 16.1161 59.958 16.2654C59.6451 16.4147 59.2789 16.4894 58.8593 16.4894C58.7242 16.4894 58.5713 16.4752 58.4006 16.4467C58.2371 16.4183 58.0735 16.3721 57.9099 16.3081C57.7464 16.2441 57.5899 16.1587 57.4406 16.0521C57.2983 15.9383 57.1775 15.7996 57.0779 15.636H57.0566V18.4735H56.1498V10.8571ZM60.4167 13.5666C60.4167 13.3106 60.3812 13.0617 60.3101 12.8199C60.2461 12.571 60.1429 12.3505 60.0007 12.1585C59.8656 11.9665 59.6878 11.8136 59.4674 11.6998C59.254 11.586 59.0016 11.5291 58.71 11.5291C58.4042 11.5291 58.1446 11.5896 57.9313 11.7105C57.7179 11.8314 57.5437 11.9914 57.4086 12.1905C57.2735 12.3825 57.1739 12.603 57.1099 12.8519C57.053 13.1008 57.0246 13.3532 57.0246 13.6093C57.0246 13.8795 57.0566 14.1426 57.1206 14.3986C57.1846 14.6475 57.2841 14.868 57.4192 15.06C57.5615 15.252 57.7428 15.4085 57.9633 15.5294C58.1837 15.6431 58.4504 15.7 58.7633 15.7C59.0762 15.7 59.3358 15.6396 59.542 15.5187C59.7554 15.3978 59.926 15.2378 60.0541 15.0387C60.1821 14.8395 60.2745 14.612 60.3314 14.356C60.3883 14.0999 60.4167 13.8368 60.4167 13.5666ZM66.484 13.0866C66.4698 12.8732 66.42 12.6705 66.3346 12.4785C66.2564 12.2865 66.1462 12.123 66.004 11.9878C65.8688 11.8456 65.7053 11.7354 65.5133 11.6571C65.3284 11.5718 65.1221 11.5291 64.8946 11.5291C64.6599 11.5291 64.4465 11.5718 64.2545 11.6571C64.0696 11.7354 63.9096 11.8456 63.7745 11.9878C63.6394 12.1301 63.5327 12.2972 63.4545 12.4892C63.3763 12.6741 63.33 12.8732 63.3158 13.0866H66.484ZM67.3587 14.6226C67.2378 15.2413 66.9711 15.7071 66.5587 16.0201C66.1462 16.333 65.627 16.4894 65.0012 16.4894C64.5603 16.4894 64.1763 16.4183 63.8492 16.2761C63.5292 16.1338 63.2589 15.9347 63.0385 15.6787C62.818 15.4227 62.6509 15.1169 62.5371 14.7613C62.4304 14.4057 62.37 14.0182 62.3558 13.5986C62.3558 13.179 62.4198 12.795 62.5478 12.4465C62.6758 12.0981 62.8536 11.7958 63.0811 11.5398C63.3158 11.2838 63.5896 11.0847 63.9025 10.9424C64.2225 10.8002 64.571 10.7291 64.9479 10.7291C65.4386 10.7291 65.844 10.8322 66.164 11.0384C66.4911 11.2376 66.7507 11.4936 66.9427 11.8065C67.1418 12.1194 67.2769 12.4607 67.348 12.8305C67.4263 13.2003 67.4583 13.5524 67.444 13.8866H63.3158C63.3087 14.1284 63.3371 14.3595 63.4012 14.58C63.4652 14.7933 63.5683 14.9853 63.7105 15.156C63.8527 15.3196 64.0341 15.4511 64.2545 15.5507C64.475 15.6503 64.7346 15.7 65.0332 15.7C65.4173 15.7 65.7302 15.6111 65.972 15.4334C66.2209 15.2556 66.3844 14.9853 66.4627 14.6226H67.3587ZM68.5973 10.8571H69.4506V11.7318H69.472C69.8489 11.0633 70.4463 10.7291 71.2641 10.7291C71.6268 10.7291 71.929 10.7789 72.1708 10.8784C72.4126 10.978 72.6081 11.1167 72.7575 11.2945C72.9068 11.4722 73.0099 11.6856 73.0668 11.9345C73.1308 12.1763 73.1628 12.4465 73.1628 12.7452V16.3721H72.2561V12.6385C72.2561 12.2972 72.1566 12.0269 71.9574 11.8278C71.7583 11.6287 71.4845 11.5291 71.1361 11.5291C70.8587 11.5291 70.6169 11.5718 70.4107 11.6571C70.2116 11.7425 70.0445 11.8634 69.9093 12.0198C69.7742 12.1763 69.6711 12.3612 69.6 12.5745C69.536 12.7808 69.504 13.0083 69.504 13.2572V16.3721H68.5973V10.8571Z" fill="white"/>
<path d="M50.6255 34.7417L47.4737 23.0501H49.3615L51.541 32.2138H51.5734L54.0446 23.0501H55.7623L58.2335 32.2138H58.274L60.4536 23.0501H62.3414L59.1815 34.7417H57.4395L54.9278 25.9264H54.8873L52.3675 34.7417H50.6255ZM65.9553 34.9118C63.4517 34.9118 61.9366 33.2023 61.9366 30.5123V30.5042C61.9366 27.8385 63.476 26.056 65.8662 26.056C68.2564 26.056 69.7229 27.7737 69.7229 30.3341V30.9255H63.6867C63.7191 32.5379 64.6022 33.4777 65.9958 33.4777C67.0329 33.4777 67.7216 32.943 67.9404 32.3029L67.9647 32.2381H69.6257L69.6095 32.3272C69.334 33.6803 68.0214 34.9118 65.9553 34.9118ZM65.8743 27.4902C64.74 27.4902 63.8649 28.2599 63.711 29.6859H67.989C67.8432 28.2113 67.0167 27.4902 65.8743 27.4902ZM75.2814 34.9118C74.0579 34.9118 73.11 34.2961 72.6076 33.2995H72.5671V34.7417H70.817V23.0501H72.5671V27.6684H72.6076C73.1181 26.6637 74.0904 26.056 75.2976 26.056C77.4366 26.056 78.8464 27.7575 78.8464 30.4718V30.4799C78.8464 33.1942 77.4447 34.9118 75.2814 34.9118ZM74.8196 33.4048C76.1969 33.4048 77.0558 32.2948 77.0558 30.4799V30.4718C77.0558 28.6731 76.1969 27.555 74.8196 27.555C73.4989 27.555 72.559 28.7055 72.559 30.4718V30.4799C72.559 32.2543 73.4908 33.4048 74.8196 33.4048ZM82.25 34.7417L86.5037 23.0501H88.4645L92.7101 34.7417H90.806L89.7365 31.5818H85.2317L84.154 34.7417H82.25ZM87.4679 24.9865L85.7178 30.1234H89.2423L87.5003 24.9865H87.4679ZM93.4639 37.5775V26.2181H95.214V27.6846H95.2545C95.7649 26.6718 96.7048 26.056 97.9202 26.056C100.092 26.056 101.485 27.7575 101.485 30.4799V30.488C101.485 33.2023 100.083 34.9118 97.9445 34.9118C96.7372 34.9118 95.7568 34.2961 95.2545 33.3076H95.214V37.5775H93.4639ZM97.4664 33.4048C98.8438 33.4048 99.7027 32.2867 99.7027 30.488V30.4799C99.7027 28.665 98.8357 27.555 97.4664 27.555C96.1377 27.555 95.2059 28.7055 95.2059 30.4799V30.488C95.2059 32.2543 96.1458 33.4048 97.4664 33.4048ZM102.514 37.5775V26.2181H104.265V27.6846H104.305C104.816 26.6718 105.755 26.056 106.971 26.056C109.142 26.056 110.536 27.7575 110.536 30.4799V30.488C110.536 33.2023 109.134 34.9118 106.995 34.9118C105.788 34.9118 104.807 34.2961 104.305 33.3076H104.265V37.5775H102.514ZM106.517 33.4048C107.894 33.4048 108.753 32.2867 108.753 30.488V30.4799C108.753 28.665 107.886 27.555 106.517 27.555C105.188 27.555 104.256 28.7055 104.256 30.4799V30.488C104.256 32.2543 105.196 33.4048 106.517 33.4048Z" fill="white"/>
<path d="M27.4867 22.81C26.9224 21.6815 25.9518 20.7733 24.7915 20.2715C25.2297 20.93 25.5748 21.8063 25.7939 22.81H27.4867Z" fill="white"/>
<path d="M23.1001 19.9595V22.8113L24.8234 22.8101C24.4477 21.3058 23.7892 20.2728 23.1001 19.9595Z" fill="white"/>
<path d="M26.0449 25.2541C26.0449 25.7865 26.0131 26.2883 25.9507 26.7889H27.8625C27.9874 26.3189 28.0816 25.7865 28.0816 25.2541C28.0816 24.7217 27.9874 24.2198 27.8625 23.7192H25.9507C26.0143 24.2199 26.0449 24.7523 26.0449 25.2541Z" fill="white"/>
<path d="M25.1047 25.2541C25.1047 24.7217 25.0729 24.2198 25.0105 23.7192H23.0986V26.7583H25.0105C25.0741 26.319 25.1047 25.8183 25.1047 25.2541Z" fill="white"/>
<path d="M24.7612 30.2675C25.9203 29.7657 26.8921 28.8575 27.4564 27.729H25.7649C25.5752 28.7327 25.2312 29.609 24.7612 30.2675Z" fill="white"/>
<path d="M32.2186 12H9.78333C9.34517 12 9 12.3452 9 12.7833V15.4785H32.2186V12ZM11.8827 14.6634C11.3503 14.6634 10.9427 14.2558 10.9427 13.7233C10.9427 13.1909 11.3503 12.7833 11.8827 12.7833C12.4151 12.7833 12.8227 13.1909 12.8227 13.7233C12.8227 14.2558 12.4151 14.6634 11.8827 14.6634ZM15.0784 14.6634C14.5459 14.6634 14.1384 14.2558 14.1384 13.7233C14.1384 13.1909 14.5459 12.7833 15.0784 12.7833C15.6108 12.7833 16.0184 13.1909 16.0184 13.7233C16.0184 14.2558 15.612 14.6634 15.0784 14.6634ZM18.306 14.6634C17.8042 14.6634 17.366 14.2558 17.366 13.7233C17.366 13.1909 17.8042 12.7833 18.306 12.7833C18.8384 12.7833 19.246 13.1909 19.246 13.7233C19.246 14.2558 18.8078 14.6634 18.306 14.6634Z" fill="white"/>
<path d="M22.1599 22.8099V19.958C21.4708 20.3032 20.8123 21.3362 20.4365 22.8099H22.1599Z" fill="white"/>
<path d="M19.3082 26.7889C19.2457 26.2871 19.2139 25.7865 19.2139 25.2541C19.2139 24.7217 19.2457 24.2198 19.3082 23.7192H17.3963C17.2715 24.1892 17.1772 24.7217 17.1772 25.2541C17.1772 25.7865 17.2715 26.2883 17.3963 26.7889H19.3082Z" fill="white"/>
<path d="M9 33.3386C9 33.7768 9.34517 34.122 9.78333 34.122H35.4767C35.9148 34.122 36.26 33.7768 36.26 33.3386V16.4185H9V33.3386ZM16.6143 23.1859C16.6143 23.1541 16.6461 23.0916 16.6767 23.061C17.5849 20.6168 19.9044 18.8934 22.662 18.8934C25.4184 18.8934 27.7061 20.6167 28.6154 23.061C28.6472 23.0929 28.6472 23.1553 28.6778 23.1859C28.8969 23.8444 29.023 24.5335 29.023 25.2544C29.023 25.9753 28.8981 26.6644 28.6778 27.3229C28.6778 27.3854 28.646 27.4172 28.6154 27.4796C27.706 29.9227 25.3561 31.646 22.6301 31.646C19.9041 31.646 17.5544 29.9227 16.6448 27.4783C16.613 27.4465 16.613 27.3841 16.5824 27.3217C16.3633 26.6632 16.2372 25.9741 16.2372 25.2532C16.269 24.5335 16.3952 23.8444 16.6143 23.1859Z" fill="white"/>
<path d="M20.4989 20.2729C19.3398 20.7748 18.368 21.683 17.8037 22.8115H19.4952C19.6849 21.8078 20.0289 20.9302 20.4989 20.2729Z" fill="white"/>
<path d="M35.4769 12H33.1587V15.4787H36.2602V12.7835C36.2602 12.3453 35.915 12 35.4769 12Z" fill="white"/>
<path d="M22.1599 30.5809V27.729H20.4365C20.8123 29.2333 21.4708 30.2675 22.1599 30.5809Z" fill="white"/>
<path d="M20.1553 25.2543C20.1553 25.7867 20.1871 26.2885 20.2495 26.7891H22.1614V23.75H20.2495C20.1859 24.22 20.1553 24.7218 20.1553 25.2543Z" fill="white"/>
<path d="M17.7734 27.729C18.3377 28.8575 19.3083 29.7657 20.4686 30.2675C20.0304 29.609 19.6853 28.7327 19.4662 27.729H17.7734Z" fill="white"/>
<path d="M24.8234 27.729H23.1001V30.5809C23.7892 30.2675 24.4477 29.2333 24.8234 27.729Z" fill="white"/>
</svg>
